<svg width="67" height="67" viewBox="0 0 67 67" fill="none" xmlns="http://www.w3.org/2000/svg">
<path d="M20.6295 21.1402H20.6295V21.1415C20.6002 23.8307 18.4989 26.0357 15.9398 26.0357C13.3591 26.0357 11.25 23.8547 11.25 21.1428C11.25 18.431 13.3591 16.25 15.9398 16.25C17.7938 16.25 19.4025 17.3737 20.1635 19.0139L20.2375 19.1734L20.4126 19.1576C25.7407 18.6792 31.1098 21.3227 34.0327 26.4051L32.5284 27.3093C32.1319 26.6254 31.6846 25.9918 31.1943 25.4106L31.0552 25.2457L30.8717 25.3592C27.9928 27.1401 26.0632 30.4614 26.0632 34.257C26.0632 38.7475 28.7648 42.5766 32.5453 43.9725C32.8933 46.7253 33.6726 49.3406 34.8117 51.7452C25.8646 51.5278 18.6596 43.9058 18.6596 34.5143C18.6596 29.3753 20.8182 24.7638 24.2399 21.607L24.598 21.2766L24.1208 21.1783C23.0643 20.9608 21.9677 20.8219 20.8634 20.8934L20.8563 20.8938C20.8485 20.8927 20.8406 20.892 20.8329 20.8917C20.8294 20.893 20.8258 20.8945 20.8223 20.896L20.632 20.9083L20.6296 21.1338L20.6295 21.1402ZM20.8721 21.3748C20.8652 21.3732 20.8583 21.3713 20.8515 21.3692C20.8585 21.3689 20.8655 21.3684 20.8725 21.3677C20.8724 21.3701 20.8722 21.3725 20.8721 21.3748ZM21.0209 20.9422C21.0349 20.9545 21.049 20.9697 21.0618 20.9854C21.0379 20.9669 21.0063 20.947 20.9713 20.9303C20.9887 20.9327 21.0054 20.9366 21.0209 20.9422ZM51.75 34.5143C51.75 41.7153 47.512 47.8792 41.5011 50.4581C40.3205 48.4761 39.4883 46.2541 39.091 43.8805C42.7459 42.414 45.3343 38.6525 45.3343 34.257C45.3343 28.5962 41.0357 23.9785 35.6988 23.9785C35.0384 23.9785 34.3933 24.0494 33.77 24.1845C32.2955 21.8787 30.2997 20.1173 28.0408 18.9737C30.2085 17.8873 32.6383 17.2786 35.2048 17.2786C44.3331 17.2786 51.75 24.9857 51.75 34.5143Z" fill="#F7F7F8" stroke="#9568A6" stroke-width="0.5"/>
</svg>
