<svg width="20" height="17" viewBox="0 0 20 17" fill="none" xmlns="http://www.w3.org/2000/svg">
<path d="M20 8.74288C20 12.2277 17.8581 15.2083 14.8287 16.4203C14.1995 15.4237 13.7619 14.297 13.5668 13.0903C15.3489 12.4424 16.6265 10.6862 16.6265 8.62138C16.6265 6.00592 14.5767 3.88567 12.0482 3.88567C11.7054 3.88567 11.3715 3.92463 11.0502 3.9985C10.2925 2.82159 9.23619 1.94373 8.04096 1.40803C9.16857 0.818702 10.4493 0.485749 11.8072 0.485749C16.332 0.485749 20 4.18259 20 8.74288Z" fill="white"/>
<path d="M1.62131 2.31474L2.16561 3.26489C3.00537 2.77624 3.91283 2.51282 4.81913 2.45602L4.81928 2.42857C4.81928 2.05049 4.73356 1.69258 4.58063 1.37353C3.56857 1.4615 2.55914 1.76902 1.62131 2.31474Z" fill="white"/>
<path fill-rule="evenodd" clip-rule="evenodd" d="M0 2.42857C0 1.08731 1.07883 0 2.40964 0C3.36531 0 4.19104 0.560712 4.58063 1.37353C3.56857 1.4615 2.55914 1.76902 1.62131 2.31474L2.16561 3.26489C3.00537 2.77624 3.91283 2.51282 4.81913 2.45602C4.80452 3.78463 3.73135 4.85713 2.40964 4.85713C1.07883 4.85713 0 3.76983 0 2.42857ZM6.3758 2.56096C4.68205 4.07369 3.61445 6.28263 3.61445 8.74288C3.61445 13.3032 7.28248 17 11.8072 17L11.811 17C11.2037 15.8083 10.7933 14.502 10.6218 13.1227C8.79167 12.5026 7.46987 10.7217 7.46987 8.62138C7.46987 6.86907 8.38996 5.33906 9.75767 4.52003C10.0178 4.81846 10.2527 5.14694 10.4573 5.50408L11.4 4.95551C9.9647 2.44996 7.26341 1.14034 4.58063 1.37353C4.73356 1.69258 4.81928 2.05049 4.81928 2.42857L4.81913 2.45602C5.34283 2.4232 5.86616 2.45938 6.3758 2.56096ZM6.3758 2.56096C7.66111 2.81715 8.85945 3.48936 9.75767 4.52003C9.94096 4.41028 10.1323 4.31329 10.3305 4.23024C9.55414 3.1041 8.46455 2.30344 7.25102 1.87935C6.94395 2.08682 6.65158 2.31466 6.3758 2.56096Z" fill="white"/>
<path d="M10.3305 4.23024C9.55414 3.1041 8.46455 2.30344 7.25102 1.87935C6.94395 2.08682 6.65158 2.31466 6.3758 2.56096C7.66111 2.81715 8.85945 3.48936 9.75767 4.52003C9.94096 4.41028 10.1323 4.31329 10.3305 4.23024Z" fill="white"/>
</svg>
