<svg width="93" height="93" viewBox="0 0 93 93" fill="none" xmlns="http://www.w3.org/2000/svg">
<rect width="93" height="93" rx="46.5" fill="url(#paint0_linear_920_196)"/>
<g opacity="0.1">
<path d="M65 40.5429C65 48.3325 60.2877 54.995 53.6231 57.7043C52.239 55.4766 51.2763 52.958 50.8469 50.2608C54.7676 48.8125 57.5783 44.8869 57.5783 40.2713C57.5783 34.425 53.0688 29.6856 47.506 29.6856C46.7519 29.6856 46.0172 29.7727 45.3105 29.9378C43.6434 27.3071 41.3196 25.3448 38.6901 24.1474C41.1708 22.83 43.9885 22.0858 46.9759 22.0858C56.9303 22.0858 65 30.3493 65 40.5429Z" fill="black"/>
<path d="M44.006 33.3032L46.08 32.077C42.9223 26.4764 36.9795 23.549 31.0774 24.0702C30.2203 22.2534 28.4037 21 26.3012 21C23.3734 21 21 23.4304 21 26.4286C21 29.4267 23.3734 31.8571 26.3012 31.8571C29.209 31.8571 31.5703 29.3984 31.6024 26.4286C32.7546 26.3552 33.9055 26.4974 35.0268 26.7245C31.3005 30.1059 28.9518 35.0435 28.9518 40.5429C28.9518 50.7365 37.0215 59 46.9759 59L46.9842 59C45.6482 56.3363 44.7452 53.4163 44.3679 50.3331C40.3417 48.947 37.4337 44.9661 37.4337 40.2713C37.4337 36.3544 39.4579 32.9344 42.4669 31.1036C43.0391 31.7707 43.5559 32.5049 44.006 33.3032Z" fill="black"/>
</g>
<path fill-rule="evenodd" clip-rule="evenodd" d="M57.3086 36.8859C57.3086 42.8823 52.5007 47.6905 46.5001 47.6905C40.5015 47.6905 35.6915 42.8823 35.6915 36.8859C35.6915 30.8895 40.5015 26.0833 46.5001 26.0833C52.5007 26.0833 57.3086 30.8895 57.3086 36.8859ZM46.5001 66.9167C37.6441 66.9167 30.1667 65.4773 30.1667 59.9239C30.1667 54.3685 37.6911 52.9801 46.5001 52.9801C55.3581 52.9801 62.8334 54.4195 62.8334 59.9729C62.8334 65.5283 55.3091 66.9167 46.5001 66.9167Z" fill="white"/>
<defs>
<linearGradient id="paint0_linear_920_196" x1="6.2" y1="8.525" x2="93" y2="93" gradientUnits="userSpaceOnUse">
<stop stop-color="#9D5FB4"/>
<stop offset="0.734594" stop-color="#AD23DF"/>
</linearGradient>
</defs>
</svg>
