<svg width="93" height="93" viewBox="0 0 93 93" fill="none" xmlns="http://www.w3.org/2000/svg">
<rect width="93" height="93" rx="46.5" fill="url(#paint0_linear_920_184)"/>
<g opacity="0.1">
<path d="M65 40.5429C65 48.3325 60.2877 54.995 53.6231 57.7043C52.239 55.4766 51.2763 52.958 50.8469 50.2608C54.7676 48.8125 57.5783 44.8869 57.5783 40.2713C57.5783 34.425 53.0688 29.6856 47.506 29.6856C46.7519 29.6856 46.0172 29.7727 45.3105 29.9378C43.6434 27.3071 41.3196 25.3448 38.6901 24.1474C41.1708 22.83 43.9885 22.0858 46.9759 22.0858C56.9303 22.0858 65 30.3493 65 40.5429Z" fill="black"/>
<path d="M44.006 33.3032L46.08 32.077C42.9223 26.4764 36.9795 23.549 31.0774 24.0702C30.2203 22.2534 28.4037 21 26.3012 21C23.3734 21 21 23.4304 21 26.4286C21 29.4267 23.3734 31.8571 26.3012 31.8571C29.209 31.8571 31.5703 29.3984 31.6024 26.4286C32.7546 26.3552 33.9055 26.4974 35.0268 26.7245C31.3005 30.1059 28.9518 35.0435 28.9518 40.5429C28.9518 50.7365 37.0215 59 46.9759 59L46.9842 59C45.6482 56.3363 44.7452 53.4163 44.3679 50.3331C40.3417 48.947 37.4337 44.9661 37.4337 40.2713C37.4337 36.3544 39.4579 32.9344 42.4669 31.1036C43.0391 31.7707 43.5559 32.5049 44.006 33.3032Z" fill="black"/>
</g>
<path fill-rule="evenodd" clip-rule="evenodd" d="M54.99 38.8087C54.99 43.606 51.1656 47.4527 46.396 47.4527C41.6265 47.4527 37.8021 43.606 37.8021 38.8087C37.8021 34.0096 41.6265 30.1667 46.396 30.1667C51.1656 30.1667 54.99 34.0096 54.99 38.8087ZM46.396 62.8333C39.3907 62.8333 33.4091 61.7227 33.4091 57.2803C33.4091 52.8361 39.3523 51.6851 46.396 51.6851C53.4013 51.6851 59.3829 52.7957 59.3829 57.2399C59.3829 61.6823 53.4397 62.8333 46.396 62.8333ZM58.6625 38.9647C58.6625 41.4102 57.9331 43.6884 56.6534 45.5823C56.5218 45.7772 56.6388 46.0401 56.8709 46.0806C57.1908 46.1357 57.5217 46.167 57.8581 46.1762C61.2127 46.2645 64.2236 44.0929 65.0554 40.8236C66.2875 35.9675 62.6697 31.6079 58.0629 31.6079C57.562 31.6079 57.083 31.6612 56.6168 31.7568C56.5528 31.7715 56.4852 31.8009 56.4486 31.8579C56.4048 31.9278 56.4377 32.0216 56.4815 32.0823C57.8654 34.0332 58.6625 36.4125 58.6625 38.9647ZM64.2181 49.5882C66.4722 50.0313 67.9548 50.936 68.569 52.2507C69.0882 53.33 69.0882 54.5822 68.569 55.6597C67.6294 57.6988 64.6002 58.3534 63.4229 58.5226C63.1797 58.5594 62.9841 58.3479 63.0097 58.1034C63.6112 52.4529 58.827 49.7739 57.5894 49.1579C57.5364 49.1303 57.5254 49.088 57.5309 49.0623C57.5345 49.0439 57.5565 49.0145 57.5967 49.009C60.2749 48.9593 63.1542 49.3271 64.2181 49.5882ZM35.1425 46.176C35.4789 46.1668 35.8079 46.1374 36.1297 46.0804C36.3619 46.0399 36.4789 45.777 36.3472 45.5821C35.0676 43.6882 34.3381 41.41 34.3381 38.9645C34.3381 36.4123 35.1352 34.033 36.5191 32.0821C36.563 32.0214 36.594 31.9276 36.552 31.8578C36.5154 31.8026 36.446 31.7713 36.3838 31.7566C35.9158 31.661 35.4368 31.6077 34.9359 31.6077C30.3291 31.6077 26.7113 35.9673 27.9452 40.8234C28.777 44.0927 31.7879 46.2643 35.1425 46.176ZM35.4688 49.0612C35.4743 49.0888 35.4633 49.1292 35.4122 49.1586C34.1727 49.7746 29.3885 52.4537 29.99 58.1023C30.0156 58.3486 29.8218 58.5583 29.5786 58.5233C28.4013 58.3542 25.3722 57.6996 24.4325 55.6604C23.9115 54.5811 23.9115 53.3307 24.4325 52.2514C25.0468 50.9367 26.5275 50.032 28.7816 49.5871C29.8474 49.3278 32.7248 48.96 35.4048 49.0097C35.4451 49.0152 35.4652 49.0446 35.4688 49.0612Z" fill="white"/>
<defs>
<linearGradient id="paint0_linear_920_184" x1="6.2" y1="8.525" x2="93" y2="93" gradientUnits="userSpaceOnUse">
<stop stop-color="#9D5FB4"/>
<stop offset="0.734594" stop-color="#AD23DF"/>
</linearGradient>
</defs>
</svg>
