<svg width="8" height="8" viewBox="0 0 8 8" fill="none" xmlns="http://www.w3.org/2000/svg">
<g id="Iconly/Bold/Add User">
<g id="Add User">
<path id="Add User_2" fill-rule="evenodd" clip-rule="evenodd" d="M3.16663 4.18448C4.08482 4.18448 4.82084 3.43894 4.82084 2.50887C4.82084 1.5788 4.08482 0.833252 3.16663 0.833252C2.24844 0.833252 1.51242 1.5788 1.51242 2.50887C1.51242 3.43894 2.24844 4.18448 3.16663 4.18448ZM3.16663 5.00498C1.81803 5.00498 0.666626 5.2206 0.666626 6.08207C0.666626 6.94319 1.81103 7.16658 3.16663 7.16658C4.51488 7.16658 5.66663 6.95097 5.66663 6.0895C5.66663 5.22804 4.52222 5.00498 3.16663 5.00498ZM6.63261 3.19587H7.03364C7.1987 3.19587 7.33329 3.33235 7.33329 3.49974C7.33329 3.66714 7.1987 3.80362 7.03364 3.80362H6.63261V4.19605C6.63261 4.36344 6.49836 4.49992 6.33295 4.49992C6.16788 4.49992 6.03329 4.36344 6.03329 4.19605V3.80362H5.63295C5.46754 3.80362 5.33329 3.66714 5.33329 3.49974C5.33329 3.33235 5.46754 3.19587 5.63295 3.19587H6.03329V2.80379C6.03329 2.6364 6.16788 2.49992 6.33295 2.49992C6.49836 2.49992 6.63261 2.6364 6.63261 2.80379V3.19587Z" fill="#4285F4"/>
</g>
</g>
</svg>
