<svg width="12" height="12" viewBox="0 0 12 12" fill="none" xmlns="http://www.w3.org/2000/svg">
<path d="M6 0C2.68667 0 0 2.68667 0 6C0 9.31333 2.68667 12 6 12C9.31333 12 12 9.31333 12 6C12 2.68667 9.31333 0 6 0ZM6 10.6667C3.42667 10.6667 1.33333 8.57333 1.33333 6C1.33333 3.42667 3.42667 1.33333 6 1.33333C8.57333 1.33333 10.6667 3.42667 10.6667 6C10.6667 8.57333 8.57333 10.6667 6 10.6667ZM8 5.33333H6.66667V4C6.66667 3.63333 6.36667 3.33333 6 3.33333C5.63333 3.33333 5.33333 3.63333 5.33333 4V5.33333H4C3.63333 5.33333 3.33333 5.63333 3.33333 6C3.33333 6.36667 3.63333 6.66667 4 6.66667H5.33333V8C5.33333 8.36667 5.63333 8.66667 6 8.66667C6.36667 8.66667 6.66667 8.36667 6.66667 8V6.66667H8C8.36667 6.66667 8.66667 6.36667 8.66667 6C8.66667 5.63333 8.36667 5.33333 8 5.33333Z" fill="#B5B5B5"/>
</svg>
