<svg width="7" height="8" viewBox="0 0 7 8" fill="none" xmlns="http://www.w3.org/2000/svg">
<path d="M0.412936 4.21053H1.53895H5.29233H6.41835C6.64355 4.21053 6.79369 4.04211 6.79369 3.78947C6.79369 3.53684 6.64355 3.36842 6.41835 3.36842H5.5926L5.0296 0.926316C4.917 0.378947 4.50412 0 4.01618 0C3.94112 0 3.86605 0.0421053 3.82852 0.0842105L3.71591 0.168421C3.56578 0.294737 3.37811 0.294737 3.22797 0.168421L3.0403 0.0842105C2.96524 0.0421053 2.89017 0 2.8151 0C2.32716 0 1.91429 0.378947 1.80169 0.926316L1.23868 3.36842H0.412936C0.187733 3.36842 0.0375977 3.53684 0.0375977 3.78947C0.0375977 4.04211 0.187733 4.21053 0.412936 4.21053ZM2.51483 1.09474C2.55236 0.968421 2.62743 0.884211 2.74003 0.842105C3.15291 1.13684 3.64085 1.13684 4.05372 0.842105C4.16632 0.884211 4.24139 0.968421 4.27892 1.09474L4.54166 2.10526H2.28963L2.51483 1.09474ZM2.10196 2.94737H4.69179L4.80439 3.36842H2.02689L2.10196 2.94737Z" fill="#F7F7F8"/>
<path d="M5.29227 4.63158C4.57913 4.63158 4.01612 5.17894 3.82845 5.89473H2.96517C2.81504 5.17894 2.2145 4.63158 1.50135 4.63158C0.675609 4.63158 0 5.38947 0 6.31579C0 7.2421 0.675609 8 1.50135 8C2.2145 8 2.7775 7.45263 2.96517 6.73684H3.82845C3.97859 7.45263 4.57913 8 5.29227 8C6.11801 8 6.79362 7.2421 6.79362 6.31579C6.79362 5.38947 6.11801 4.63158 5.29227 4.63158ZM1.53889 7.15789C1.12601 7.15789 0.78821 6.77894 0.78821 6.31579C0.78821 5.85263 1.12601 5.47368 1.53889 5.47368C1.95176 5.47368 2.28956 5.85263 2.28956 6.31579C2.28956 6.77894 1.95176 7.15789 1.53889 7.15789ZM5.29227 7.15789C4.8794 7.15789 4.54159 6.77894 4.54159 6.31579C4.54159 5.85263 4.8794 5.47368 5.29227 5.47368C5.70514 5.47368 6.04295 5.85263 6.04295 6.31579C6.04295 6.77894 5.70514 7.15789 5.29227 7.15789Z" fill="#F7F7F8"/>
</svg>
