<svg width="3" height="3" viewBox="0 0 3 3" fill="none" xmlns="http://www.w3.org/2000/svg">
<path d="M2.93345 0.0688283C2.84471 -0.0199089 2.70137 -0.0199089 2.61263 0.0688283L1.5 1.17918L0.387372 0.0665529C0.298635 -0.0221843 0.15529 -0.0221843 0.0665529 0.0665529C-0.0221843 0.15529 -0.0221843 0.298635 0.0665529 0.387372L1.17918 1.5L0.0665529 2.61263C-0.0221843 2.70137 -0.0221843 2.84471 0.0665529 2.93345C0.15529 3.02218 0.298635 3.02218 0.387372 2.93345L1.5 1.82082L2.61263 2.93345C2.70137 3.02218 2.84471 3.02218 2.93345 2.93345C3.02218 2.84471 3.02218 2.70137 2.93345 2.61263L1.82082 1.5L2.93345 0.387372C3.01991 0.30091 3.01991 0.15529 2.93345 0.0688283V0.0688283Z" fill="#5B5C63"/>
</svg>
