<svg width="7" height="7" viewBox="0 0 7 7" fill="none" xmlns="http://www.w3.org/2000/svg">
<path opacity="0.8" d="M3.5 0C1.5645 0 0 1.5645 0 3.5C0 5.4355 1.5645 7 3.5 7C5.4355 7 7 5.4355 7 3.5C7 1.5645 5.4355 0 3.5 0ZM5.005 5.005C4.8685 5.1415 4.648 5.1415 4.5115 5.005L3.5 3.9935L2.4885 5.005C2.352 5.1415 2.1315 5.1415 1.995 5.005C1.8585 4.8685 1.8585 4.648 1.995 4.5115L3.0065 3.5L1.995 2.4885C1.8585 2.352 1.8585 2.1315 1.995 1.995C2.1315 1.8585 2.352 1.8585 2.4885 1.995L3.5 3.0065L4.5115 1.995C4.648 1.8585 4.8685 1.8585 5.005 1.995C5.1415 2.1315 5.1415 2.352 5.005 2.4885L3.9935 3.5L5.005 4.5115C5.138 4.6445 5.138 4.8685 5.005 5.005Z" fill="#8A8B96"/>
</svg>
