<svg width="13" height="13" viewBox="0 0 13 13" fill="none" xmlns="http://www.w3.org/2000/svg">
<path d="M0.590909 2.36364C0.265909 2.36364 0 2.62955 0 2.95455V11.8182C0 12.4682 0.531818 13 1.18182 13H10.0455C10.3705 13 10.6364 12.7341 10.6364 12.4091C10.6364 12.0841 10.3705 11.8182 10.0455 11.8182H1.77273C1.44773 11.8182 1.18182 11.5523 1.18182 11.2273V2.95455C1.18182 2.62955 0.915909 2.36364 0.590909 2.36364ZM11.8182 0H3.54545C2.89545 0 2.36364 0.531818 2.36364 1.18182V9.45455C2.36364 10.1045 2.89545 10.6364 3.54545 10.6364H11.8182C12.4682 10.6364 13 10.1045 13 9.45455V1.18182C13 0.531818 12.4682 0 11.8182 0ZM11.2273 9.45455H4.13636C3.81136 9.45455 3.54545 9.18864 3.54545 8.86364V1.77273C3.54545 1.44773 3.81136 1.18182 4.13636 1.18182H11.2273C11.5523 1.18182 11.8182 1.44773 11.8182 1.77273V8.86364C11.8182 9.18864 11.5523 9.45455 11.2273 9.45455Z" fill="#5B5C63"/>
</svg>
