<svg width="7" height="9" viewBox="0 0 7 9" fill="none" xmlns="http://www.w3.org/2000/svg">
<path d="M0.5 8C0.5 8.55 0.95 9 1.5 9H5.5C6.05 9 6.5 8.55 6.5 8V3C6.5 2.45 6.05 2 5.5 2H1.5C0.95 2 0.5 2.45 0.5 3V8ZM2.085 4.085C2.28 3.89 2.595 3.89 2.79 4.085L3.5 4.795L4.21 4.085C4.405 3.89 4.72 3.89 4.915 4.085C5.11 4.28 5.11 4.595 4.915 4.79L4.205 5.5L4.915 6.21C5.11 6.405 5.11 6.72 4.915 6.915C4.72 7.11 4.405 7.11 4.21 6.915L3.5 6.205L2.79 6.915C2.595 7.11 2.28 7.11 2.085 6.915C1.89 6.72 1.89 6.405 2.085 6.21L2.795 5.5L2.085 4.79C1.89 4.6 1.89 4.28 2.085 4.085ZM5.25 0.5L4.895 0.145C4.805 0.055 4.675 0 4.545 0H2.455C2.325 0 2.195 0.055 2.105 0.145L1.75 0.5H0.5C0.225 0.5 0 0.725 0 1C0 1.275 0.225 1.5 0.5 1.5H6.5C6.775 1.5 7 1.275 7 1C7 0.725 6.775 0.5 6.5 0.5H5.25Z" fill="#A24437"/>
</svg>
