<svg width="7" height="8" viewBox="0 0 7 8" fill="none" xmlns="http://www.w3.org/2000/svg">
<path d="M5.44444 5.6C6.08883 5.6 6.61111 6.1372 6.61111 6.8C6.61111 7.4628 6.08883 8 5.44444 8C4.80006 8 4.27778 7.4628 4.27778 6.8C4.27778 6.1372 4.80006 5.6 5.44444 5.6ZM1.55556 4C2.415 4 3.11111 4.716 3.11111 5.6C3.11111 6.484 2.415 7.2 1.55556 7.2C0.696111 7.2 0 6.484 0 5.6C0 4.716 0.696111 4 1.55556 4ZM4.86111 0C6.04256 0 7 0.9848 7 2.2C7 3.4152 6.04256 4.4 4.86111 4.4C3.67967 4.4 2.72222 3.4152 2.72222 2.2C2.72222 0.9848 3.67967 0 4.86111 0Z" fill="#8A8B96"/>
</svg>
