<svg width="15" height="15" viewBox="0 0 15 15" fill="none" xmlns="http://www.w3.org/2000/svg">
<path d="M7.5 15C3.35775 15 0 11.6423 0 7.5C0 3.35775 3.35775 0 7.5 0C11.6423 0 15 3.35775 15 7.5C15 11.6423 11.6423 15 7.5 15ZM7.5 13.5C9.0913 13.5 10.6174 12.8679 11.7426 11.7426C12.8679 10.6174 13.5 9.0913 13.5 7.5C13.5 5.9087 12.8679 4.38258 11.7426 3.25736C10.6174 2.13214 9.0913 1.5 7.5 1.5C5.9087 1.5 4.38258 2.13214 3.25736 3.25736C2.13214 4.38258 1.5 5.9087 1.5 7.5C1.5 9.0913 2.13214 10.6174 3.25736 11.7426C4.38258 12.8679 5.9087 13.5 7.5 13.5ZM4.5 8.25H10.5C10.5 9.04565 10.1839 9.80871 9.62132 10.3713C9.05871 10.9339 8.29565 11.25 7.5 11.25C6.70435 11.25 5.94129 10.9339 5.37868 10.3713C4.81607 9.80871 4.5 9.04565 4.5 8.25ZM4.5 6.75C4.20163 6.75 3.91548 6.63147 3.7045 6.4205C3.49353 6.20952 3.375 5.92337 3.375 5.625C3.375 5.32663 3.49353 5.04048 3.7045 4.8295C3.91548 4.61853 4.20163 4.5 4.5 4.5C4.79837 4.5 5.08452 4.61853 5.2955 4.8295C5.50647 5.04048 5.625 5.32663 5.625 5.625C5.625 5.92337 5.50647 6.20952 5.2955 6.4205C5.08452 6.63147 4.79837 6.75 4.5 6.75ZM10.5 6.75C10.2016 6.75 9.91548 6.63147 9.7045 6.4205C9.49353 6.20952 9.375 5.92337 9.375 5.625C9.375 5.32663 9.49353 5.04048 9.7045 4.8295C9.91548 4.61853 10.2016 4.5 10.5 4.5C10.7984 4.5 11.0845 4.61853 11.2955 4.8295C11.5065 5.04048 11.625 5.32663 11.625 5.625C11.625 5.92337 11.5065 6.20952 11.2955 6.4205C11.0845 6.63147 10.7984 6.75 10.5 6.75Z" fill="#8A8B96"/>
</svg>
