<svg width="15" height="15" viewBox="0 0 15 15" fill="none" xmlns="http://www.w3.org/2000/svg">
<circle cx="7.5" cy="7.5" r="7.5" fill="black"/>
<path d="M7.5 2.5C4.7375 2.5 2.5 4.7224 2.5 7.46627C2.5 9.66384 3.93125 11.52 5.91875 12.178C6.16875 12.2215 6.2625 12.0725 6.2625 11.9421C6.2625 11.8242 6.25625 11.4331 6.25625 11.0171C5 11.2468 4.675 10.713 4.575 10.4336C4.51875 10.2908 4.275 9.85008 4.0625 9.73213C3.8875 9.63901 3.6375 9.40932 4.05625 9.40311C4.45 9.3969 4.73125 9.76317 4.825 9.91215C5.275 10.6633 5.99375 10.4522 6.28125 10.3219C6.325 9.99906 6.45625 9.78179 6.6 9.65763C5.4875 9.53348 4.325 9.10514 4.325 7.20554C4.325 6.66546 4.51875 6.21849 4.8375 5.87085C4.7875 5.7467 4.6125 5.23765 4.8875 4.55479C4.8875 4.55479 5.30625 4.42443 6.2625 5.06384C6.6625 4.95209 7.0875 4.89622 7.5125 4.89622C7.9375 4.89622 8.3625 4.95209 8.7625 5.06384C9.71875 4.41822 10.1375 4.55479 10.1375 4.55479C10.4125 5.23765 10.2375 5.7467 10.1875 5.87085C10.5063 6.21849 10.7 6.65925 10.7 7.20554C10.7 9.11134 9.53125 9.53348 8.41875 9.65763C8.6 9.81283 8.75625 10.1108 8.75625 10.5764C8.75625 11.2406 8.75 11.7745 8.75 11.9421C8.75 12.0725 8.84375 12.2277 9.09375 12.178C11.129 11.4956 12.4995 9.5999 12.5 7.46627C12.5 4.7224 10.2625 2.5 7.5 2.5Z" fill="white"/>
</svg>
