<svg width="16" height="16" viewBox="0 0 16 16" fill="none" xmlns="http://www.w3.org/2000/svg">
<circle cx="8" cy="8" r="8" fill="#F7F7F7"/>
<path d="M13 8.12C13 7.76888 12.9693 7.43555 12.9165 7.11111H7.94556V9.11555H10.7917C10.6642 9.77333 10.2902 10.3289 9.73596 10.7067V12.04H11.434C12.4282 11.1111 13 9.74222 13 8.12Z" fill="#4285F4"/>
<path d="M7.94556 13.3333C9.37085 13.3333 10.563 12.8533 11.434 12.04L9.73597 10.7067C9.26087 11.0267 8.6582 11.2222 7.94556 11.2222C6.56866 11.2222 5.40292 10.2844 4.98501 9.01778H3.23419V10.3911C4.1008 12.1333 5.88241 13.3333 7.94556 13.3333Z" fill="#34A853"/>
<path d="M4.98498 9.01778C4.875 8.69778 4.81782 8.35555 4.81782 8C4.81782 7.64444 4.8794 7.30222 4.98498 6.98222V5.60889H3.23416C2.87344 6.32889 2.66669 7.13778 2.66669 8C2.66669 8.86222 2.87344 9.67111 3.23416 10.3911L4.98498 9.01778Z" fill="#FBBC05"/>
<path d="M7.94556 4.77778C8.72419 4.77778 9.41924 5.04889 9.96912 5.57778L11.4736 4.05778C10.563 3.19555 9.37085 2.66666 7.94556 2.66666C5.88241 2.66666 4.1008 3.86666 3.23419 5.60889L4.98501 6.98222C5.40292 5.71555 6.56866 4.77778 7.94556 4.77778Z" fill="#EA4335"/>
</svg>
