<svg width="13" height="13" viewBox="0 0 13 13" fill="none" xmlns="http://www.w3.org/2000/svg">
<path d="M13 11.5556V1.44444C13 0.65 12.35 0 11.5556 0H1.44444C0.65 0 0 0.65 0 1.44444V11.5556C0 12.35 0.65 13 1.44444 13H11.5556C12.35 13 13 12.35 13 11.5556ZM4.26111 7.93L5.77778 9.75722L8.01667 6.87556C8.16111 6.68778 8.45 6.68778 8.59444 6.88278L11.1294 10.2628C11.31 10.5011 11.1367 10.8406 10.8406 10.8406H2.18111C1.87778 10.8406 1.71167 10.4939 1.89944 10.2556L3.69778 7.94444C3.835 7.75667 4.10944 7.74944 4.26111 7.93V7.93Z" fill="#8A8B96"/>
</svg>
