<svg width="8" height="8" viewBox="0 0 8 8" fill="none" xmlns="http://www.w3.org/2000/svg">
<path fill-rule="evenodd" clip-rule="evenodd" d="M3.5 5.17163C2.15141 5.17163 1 5.38725 1 6.24871C1 7.10984 2.1444 7.33323 3.5 7.33323C4.84826 7.33323 6 7.11761 6 6.25615C6 5.39469 4.8556 5.17163 3.5 5.17163" fill="#8A8B96"/>
<path fill-rule="evenodd" clip-rule="evenodd" d="M3.50004 4.35123C4.41823 4.35123 5.15425 3.60568 5.15425 2.67561C5.15425 1.74554 4.41823 1 3.50004 1C2.58185 1 1.84583 1.74554 1.84583 2.67561C1.84583 3.60568 2.58185 4.35123 3.50004 4.35123" fill="#8A8B96"/>
<path d="M5.40122 4.31562L6.26258 5.10597C6.35107 5.18745 6.49562 5.18745 6.58411 5.10326C6.67261 5.02178 6.67261 4.88869 6.58411 4.80721L6.11214 4.37537H7.12424C7.23974 4.37537 7.33337 4.28174 7.33337 4.16624V4.16624C7.33337 4.05074 7.23974 3.9571 7.12424 3.9571H6.11214L6.58411 3.52526C6.67261 3.44378 6.67261 3.3107 6.58411 3.22922C6.53986 3.18848 6.48087 3.16675 6.42187 3.16675C6.36582 3.16675 6.30683 3.18848 6.26258 3.22922L5.40122 4.01957C5.35697 4.0576 5.33337 4.11192 5.33337 4.16624C5.33337 4.22327 5.35697 4.27488 5.40122 4.31562Z" fill="#8A8B96"/>
</svg>
