<svg width="15" height="15" viewBox="0 0 15 15" fill="none" xmlns="http://www.w3.org/2000/svg">
<g id="Iconly/Bold/Chat">
<g id="Chat">
<path id="Chat_2" fill-rule="evenodd" clip-rule="evenodd" d="M1.25 7.50939C1.25 4.21695 3.88125 1.25 7.5125 1.25C11.0625 1.25 13.75 4.16062 13.75 7.49061C13.75 11.3527 10.6 13.75 7.5 13.75C6.475 13.75 5.3375 13.4746 4.425 12.9363C4.10625 12.7422 3.8375 12.5983 3.49375 12.7109L2.23125 13.0865C1.9125 13.1867 1.625 12.9363 1.71875 12.5983L2.1375 11.1962C2.20625 11.0021 2.19375 10.7956 2.09375 10.6328C1.55625 9.64384 1.25 8.56097 1.25 7.50939ZM6.6875 7.50939C6.6875 7.95381 7.04375 8.31059 7.4875 8.31685C7.93125 8.31685 8.2875 7.95381 8.2875 7.51565C8.2875 7.07123 7.93125 6.71445 7.4875 6.71445C7.05 6.70819 6.6875 7.07123 6.6875 7.50939ZM9.56875 7.51565C9.56875 7.95381 9.925 8.31685 10.3687 8.31685C10.8125 8.31685 11.1687 7.95381 11.1687 7.51565C11.1687 7.07123 10.8125 6.71445 10.3687 6.71445C9.925 6.71445 9.56875 7.07123 9.56875 7.51565ZM4.60625 8.31685C4.16875 8.31685 3.80625 7.95381 3.80625 7.51565C3.80625 7.07123 4.1625 6.71445 4.60625 6.71445C5.05 6.71445 5.40625 7.07123 5.40625 7.51565C5.40625 7.95381 5.05 8.31059 4.60625 8.31685Z" fill="#9568A6"/>
</g>
</g>
</svg>
