<svg width="8" height="8" viewBox="0 0 8 8" fill="none" xmlns="http://www.w3.org/2000/svg">
<path d="M7.5 4.08572C7.5 5.31565 6.75032 6.36763 5.69004 6.79541C5.46984 6.44367 5.31668 6.046 5.24837 5.62012C5.87212 5.39145 6.31927 4.77161 6.31927 4.04284C6.31927 3.11974 5.60185 2.37141 4.71686 2.37141C4.5969 2.37141 4.48001 2.38516 4.36757 2.41124C4.10237 1.99586 3.73266 1.68602 3.31434 1.49695C3.709 1.28895 4.15726 1.17144 4.63253 1.17144C6.21619 1.17144 7.5 2.47621 7.5 4.08572Z" fill="#9568A6"/>
<path d="M4.16004 2.94262L4.49 2.749C3.98764 1.86469 3.04219 1.40247 2.10322 1.48477C1.96687 1.1979 1.67786 1 1.34337 1C0.877591 1 0.5 1.38376 0.5 1.85714C0.5 2.33053 0.877591 2.71428 1.34337 2.71428C1.80597 2.71428 2.18164 2.32606 2.18675 1.85714C2.37005 1.84556 2.55316 1.86802 2.73153 1.90387C2.13872 2.43777 1.76506 3.2174 1.76506 4.08572C1.76506 5.69523 3.04887 7 4.63253 7L4.63386 7C4.42131 6.57941 4.27765 6.11836 4.21761 5.63155C3.57709 5.41268 3.11445 4.78411 3.11445 4.04284C3.11445 3.42438 3.43649 2.88437 3.91519 2.59531C4.00621 2.70063 4.08844 2.81657 4.16004 2.94262Z" fill="#9568A6"/>
</svg>
