<svg width="22" height="22" viewBox="0 0 22 22" fill="none" xmlns="http://www.w3.org/2000/svg">
<path fill-rule="evenodd" clip-rule="evenodd" d="M17.1481 8.0633C17.1481 9.21457 17.4524 9.89314 18.122 10.6751C18.6294 11.2512 18.7916 11.9907 18.7916 12.793C18.7916 13.5944 18.5283 14.3551 18.0008 14.9728C17.3102 15.7132 16.3363 16.1859 15.3424 16.2681C13.902 16.3909 12.4608 16.4943 11.0004 16.4943C9.53907 16.4943 8.09871 16.4324 6.65836 16.2681C5.6635 16.1859 4.6896 15.7132 3.99995 14.9728C3.47245 14.3551 3.20825 13.5944 3.20825 12.793C3.20825 11.9907 3.37133 11.2512 3.87787 10.6751C4.56843 9.89314 4.85268 9.21457 4.85268 8.0633V7.67277C4.85268 6.13097 5.23714 5.1228 6.02883 4.13587C7.20589 2.69655 9.09266 1.83333 10.9594 1.83333H11.0414C12.9482 1.83333 14.896 2.7381 16.053 4.23927C16.8037 5.20589 17.1481 6.1716 17.1481 7.67277V8.0633ZM8.31745 18.3891C8.31745 17.9275 8.74109 17.7161 9.13283 17.6256C9.59109 17.5286 12.3834 17.5286 12.8417 17.6256C13.2334 17.7161 13.6571 17.9275 13.6571 18.3891C13.6343 18.8286 13.3765 19.2182 13.0202 19.4656C12.5583 19.8256 12.0163 20.0537 11.4496 20.1358C11.1362 20.1765 10.8283 20.1774 10.5258 20.1358C9.95824 20.0537 9.41617 19.8256 8.95518 19.4647C8.59805 19.2182 8.34023 18.8286 8.31745 18.3891Z" fill="#8A8B96"/>
</svg>
