<svg width="12" height="4" viewBox="0 0 12 4" fill="none" xmlns="http://www.w3.org/2000/svg">
<path d="M1.516 3.06C1.228 3.06 0.979329 2.99733 0.769995 2.872C0.561995 2.74666 0.401328 2.57133 0.287995 2.346C0.175995 2.12066 0.119995 1.85866 0.119995 1.56C0.119995 1.26133 0.175995 0.999331 0.287995 0.773998C0.401328 0.548664 0.561995 0.373331 0.769995 0.247998C0.979329 0.122664 1.228 0.0599976 1.516 0.0599976C1.804 0.0599976 2.052 0.122664 2.25999 0.247998C2.46933 0.373331 2.63 0.548664 2.742 0.773998C2.85533 0.999331 2.912 1.26133 2.912 1.56C2.912 1.85866 2.85533 2.12066 2.742 2.346C2.63 2.57133 2.46933 2.74666 2.25999 2.872C2.052 2.99733 1.804 3.06 1.516 3.06ZM1.516 2.548C1.69866 2.55066 1.85066 2.51133 1.972 2.43C2.09333 2.34866 2.184 2.23333 2.244 2.084C2.30533 1.93466 2.336 1.76 2.336 1.56C2.336 1.36 2.30533 1.18666 2.244 1.04C2.184 0.893331 2.09333 0.779331 1.972 0.697998C1.85066 0.616664 1.69866 0.574664 1.516 0.571997C1.33333 0.569331 1.18133 0.608664 1.06 0.689997C0.938662 0.771331 0.847328 0.886664 0.785995 1.036C0.725995 1.18533 0.695995 1.36 0.695995 1.56C0.695995 1.76 0.725995 1.93333 0.785995 2.08C0.847328 2.22666 0.938662 2.34066 1.06 2.422C1.18133 2.50333 1.33333 2.54533 1.516 2.548Z" fill="#BA3826"/>
<path d="M3.31125 3V0.119998H4.52725C4.55525 0.119998 4.59258 0.121331 4.63925 0.123997C4.68725 0.125331 4.72991 0.129331 4.76725 0.135998C4.93925 0.162664 5.07991 0.219331 5.18925 0.305997C5.29991 0.392664 5.38125 0.501997 5.43325 0.633997C5.48525 0.764664 5.51125 0.910664 5.51125 1.072C5.51125 1.23333 5.48458 1.38 5.43125 1.512C5.37925 1.64266 5.29791 1.75133 5.18725 1.838C5.07791 1.92466 4.93791 1.98133 4.76725 2.008C4.72991 2.01333 4.68725 2.01733 4.63925 2.02C4.59125 2.02266 4.55391 2.024 4.52725 2.024H3.85525V3H3.31125ZM3.85525 1.516H4.50325C4.53125 1.516 4.56191 1.51466 4.59525 1.512C4.62858 1.50933 4.65925 1.504 4.68725 1.496C4.76058 1.476 4.81725 1.44266 4.85725 1.396C4.89725 1.348 4.92458 1.29533 4.93925 1.238C4.95525 1.17933 4.96325 1.124 4.96325 1.072C4.96325 1.02 4.95525 0.965331 4.93925 0.907998C4.92458 0.849331 4.89725 0.796664 4.85725 0.749998C4.81725 0.701998 4.76058 0.667998 4.68725 0.647998C4.65925 0.639998 4.62858 0.634664 4.59525 0.631998C4.56191 0.629331 4.53125 0.627997 4.50325 0.627997H3.85525V1.516Z" fill="#BA3826"/>
<path d="M5.91281 3V0.119998H7.12881C7.15681 0.119998 7.19414 0.121331 7.24081 0.123997C7.28881 0.125331 7.33147 0.129331 7.36881 0.135998C7.54081 0.162664 7.68147 0.219331 7.79081 0.305997C7.90147 0.392664 7.98281 0.501997 8.03481 0.633997C8.08681 0.764664 8.11281 0.910664 8.11281 1.072C8.11281 1.23333 8.08614 1.38 8.03281 1.512C7.98081 1.64266 7.89947 1.75133 7.78881 1.838C7.67947 1.92466 7.53947 1.98133 7.36881 2.008C7.33147 2.01333 7.28881 2.01733 7.24081 2.02C7.19281 2.02266 7.15547 2.024 7.12881 2.024H6.45681V3H5.91281ZM6.45681 1.516H7.10481C7.13281 1.516 7.16347 1.51466 7.19681 1.512C7.23014 1.50933 7.26081 1.504 7.28881 1.496C7.36214 1.476 7.41881 1.44266 7.45881 1.396C7.49881 1.348 7.52614 1.29533 7.54081 1.238C7.55681 1.17933 7.56481 1.124 7.56481 1.072C7.56481 1.02 7.55681 0.965331 7.54081 0.907998C7.52614 0.849331 7.49881 0.796664 7.45881 0.749998C7.41881 0.701998 7.36214 0.667998 7.28881 0.647998C7.26081 0.639998 7.23014 0.634664 7.19681 0.631998C7.16347 0.629331 7.13281 0.627997 7.10481 0.627997H6.45681V1.516Z" fill="#BA3826"/>
<path d="M9.60237 3.06C9.38904 3.06 9.19637 3.02266 9.02437 2.948C8.8537 2.872 8.71304 2.764 8.60237 2.624C8.49304 2.48266 8.4237 2.31466 8.39437 2.12L8.96237 2.036C9.00237 2.20133 9.08504 2.32866 9.21037 2.418C9.3357 2.50733 9.47837 2.552 9.63837 2.552C9.7277 2.552 9.81437 2.538 9.89837 2.51C9.98237 2.482 10.051 2.44066 10.1044 2.386C10.159 2.33133 10.1864 2.264 10.1864 2.184C10.1864 2.15466 10.1817 2.12666 10.1724 2.1C10.1644 2.072 10.1504 2.046 10.1304 2.022C10.1104 1.998 10.0817 1.97533 10.0444 1.954C10.0084 1.93266 9.96237 1.91333 9.90637 1.896L9.15837 1.676C9.10237 1.66 9.03704 1.63733 8.96237 1.608C8.88904 1.57866 8.8177 1.53666 8.74837 1.482C8.67904 1.42733 8.62104 1.35533 8.57437 1.266C8.52904 1.17533 8.50637 1.06133 8.50637 0.923997C8.50637 0.730664 8.55504 0.569997 8.65237 0.441998C8.7497 0.313997 8.8797 0.218664 9.04237 0.155998C9.20504 0.0933308 9.38504 0.0626641 9.58237 0.0639975C9.78104 0.0666641 9.95837 0.100664 10.1144 0.165998C10.2704 0.231331 10.401 0.326664 10.5064 0.451998C10.6117 0.575997 10.6877 0.727997 10.7344 0.907998L10.1464 1.008C10.125 0.914664 10.0857 0.835997 10.0284 0.771997C9.97104 0.707997 9.90237 0.659331 9.82237 0.625998C9.7437 0.592664 9.66104 0.574664 9.57437 0.571997C9.48904 0.569331 9.40837 0.581331 9.33237 0.607997C9.2577 0.633331 9.19637 0.670664 9.14837 0.719997C9.1017 0.769331 9.07837 0.827998 9.07837 0.895998C9.07837 0.958664 9.0977 1.01 9.13637 1.05C9.17504 1.08866 9.2237 1.12 9.28237 1.144C9.34104 1.168 9.40104 1.188 9.46237 1.204L9.96237 1.34C10.037 1.36 10.1197 1.38666 10.2104 1.42C10.301 1.452 10.3877 1.49733 10.4704 1.556C10.5544 1.61333 10.623 1.68933 10.6764 1.784C10.731 1.87866 10.7584 1.99866 10.7584 2.144C10.7584 2.29866 10.7257 2.434 10.6604 2.55C10.5964 2.66466 10.5097 2.76 10.4004 2.836C10.291 2.91066 10.167 2.96666 10.0284 3.004C9.89104 3.04133 9.74904 3.06 9.60237 3.06Z" fill="#BA3826"/>
<path d="M11.398 3V2.52H11.942V3H11.398ZM11.398 2.28V0.119998H11.942V2.28H11.398Z" fill="#BA3826"/>
</svg>
