<svg width="24" height="24" viewBox="0 0 24 24" fill="none" xmlns="http://www.w3.org/2000/svg">
<path d="M14 7.375C14 6.61875 13.325 6 12.5 6C11.675 6 11 6.61875 11 7.375C11 8.13125 11.675 8.75 12.5 8.75C13.325 8.75 14 8.13125 14 7.375ZM14 15.625C14 14.8687 13.325 14.25 12.5 14.25C11.675 14.25 11 14.8687 11 15.625C11 16.3813 11.675 17 12.5 17C13.325 17 14 16.3813 14 15.625ZM14 11.5C14 10.7437 13.325 10.125 12.5 10.125C11.675 10.125 11 10.7437 11 11.5C11 12.2563 11.675 12.875 12.5 12.875C13.325 12.875 14 12.2563 14 11.5Z" fill="#A1A1A3"/>
</svg>
