<svg width="12" height="12" viewBox="0 0 12 12" fill="none" xmlns="http://www.w3.org/2000/svg">
<g id="Iconly/Bold/Plus">
<g id="Plus">
<path id="Plus_2" fill-rule="evenodd" clip-rule="evenodd" d="M3.665 1H8.33C10.03 1 11 1.96 11 3.665V8.335C11 10.03 10.035 11 8.335 11H3.665C1.96 11 1 10.03 1 8.335V3.665C1 1.96 1.96 1 3.665 1ZM6.41 6.415H7.83C8.06 6.41 8.245 6.225 8.245 5.995C8.245 5.765 8.06 5.58 7.83 5.58H6.41V4.17C6.41 3.94 6.225 3.755 5.995 3.755C5.765 3.755 5.58 3.94 5.58 4.17V5.58H4.165C4.055 5.58 3.95 5.625 3.87 5.7C3.795 5.78 3.75 5.8845 3.75 5.995C3.75 6.225 3.935 6.41 4.165 6.415H5.58V7.83C5.58 8.06 5.765 8.245 5.995 8.245C6.225 8.245 6.41 8.06 6.41 7.83V6.415Z" fill="white"/>
</g>
</g>
</svg>
