<svg width="12" height="9" viewBox="0 0 12 9" fill="none" xmlns="http://www.w3.org/2000/svg">
<path d="M9.81818 2.25L7.63636 4.5H9.27273C9.27273 6.36187 7.80545 7.875 6 7.875C5.44909 7.875 4.92545 7.73437 4.47273 7.48125L3.67636 8.3025C4.34727 8.74125 5.14364 9 6 9C8.41091 9 10.3636 6.98625 10.3636 4.5H12L9.81818 2.25ZM2.72727 4.5C2.72727 2.63813 4.19455 1.125 6 1.125C6.55091 1.125 7.07455 1.26562 7.52727 1.51875L8.32364 0.6975C7.65273 0.25875 6.85636 0 6 0C3.58909 0 1.63636 2.01375 1.63636 4.5H0L2.18182 6.75L4.36364 4.5H2.72727Z" fill="#8A8B96"/>
</svg>
