<svg width="15" height="15" viewBox="0 0 15 15" fill="none" xmlns="http://www.w3.org/2000/svg">
<g id="Iconly/Bold/Add User">
<g id="Add User">
<path id="Add User_2" fill-rule="evenodd" clip-rule="evenodd" d="M5.9375 7.84605C7.65911 7.84605 9.03914 6.44816 9.03914 4.70428C9.03914 2.96039 7.65911 1.5625 5.9375 1.5625C4.21589 1.5625 2.83586 2.96039 2.83586 4.70428C2.83586 6.44816 4.21589 7.84605 5.9375 7.84605ZM5.9375 9.3845C3.40889 9.3845 1.25 9.78878 1.25 11.404C1.25 13.0186 3.39575 13.4375 5.9375 13.4375C8.46548 13.4375 10.625 13.0332 10.625 11.418C10.625 9.80272 8.47925 9.3845 5.9375 9.3845ZM11.8548 5.76278L12.3771 5.22189C12.5921 4.99925 12.9515 4.99549 13.1772 5.21351C13.403 5.43154 13.4118 5.79083 13.1968 6.01347L12.6745 6.55436L13.2038 7.06549C13.4295 7.28351 13.4388 7.64235 13.2233 7.86545C13.0083 8.08808 12.6489 8.09185 12.4232 7.87382L11.8939 7.36269L11.3724 7.90266C11.157 8.12576 10.7981 8.12906 10.5723 7.91104C10.3465 7.69301 10.3373 7.33418 10.5527 7.11108L11.0742 6.57111L10.5453 6.06043C10.3196 5.84241 10.3108 5.48312 10.5258 5.26048C10.7412 5.03738 11.1002 5.03408 11.3259 5.2521L11.8548 5.76278Z" fill="#D95644"/>
</g>
</g>
</svg>
