<svg width="11" height="4" viewBox="0 0 11 4" fill="none" xmlns="http://www.w3.org/2000/svg">
<path d="M0.280029 3V0.119995H1.49603C1.52403 0.119995 1.56136 0.121328 1.60803 0.123995C1.65603 0.125328 1.6987 0.129328 1.73603 0.135995C1.90803 0.162662 2.0487 0.219328 2.15803 0.305995C2.2687 0.392662 2.35003 0.501995 2.40203 0.633995C2.45403 0.764662 2.48003 0.910662 2.48003 1.072C2.48003 1.31333 2.42003 1.52 2.30003 1.692C2.18003 1.86266 1.99203 1.968 1.73603 2.008L1.49603 2.024H0.824029V3H0.280029ZM1.90403 3L1.33603 1.828L1.89603 1.72L2.52003 3H1.90403ZM0.824029 1.516H1.47203C1.50003 1.516 1.5307 1.51466 1.56403 1.512C1.59736 1.50933 1.62803 1.504 1.65603 1.496C1.72936 1.476 1.78603 1.44266 1.82603 1.396C1.86603 1.348 1.89336 1.29533 1.90803 1.238C1.92403 1.17933 1.93203 1.124 1.93203 1.072C1.93203 1.02 1.92403 0.965329 1.90803 0.907995C1.89336 0.849329 1.86603 0.796662 1.82603 0.749995C1.78603 0.701995 1.72936 0.667995 1.65603 0.647995C1.62803 0.639995 1.59736 0.634662 1.56403 0.631995C1.5307 0.629328 1.50003 0.627995 1.47203 0.627995H0.824029V1.516Z" fill="#BA3826"/>
<path d="M3.96372 3.06C3.74238 3.06 3.54705 3.01266 3.37772 2.918C3.20972 2.822 3.07772 2.69066 2.98172 2.524C2.88705 2.356 2.83972 2.164 2.83972 1.948C2.83972 1.712 2.88638 1.50666 2.97972 1.332C3.07305 1.15733 3.20172 1.022 3.36572 0.925995C3.52972 0.828662 3.71838 0.779995 3.93172 0.779995C4.15838 0.779995 4.35105 0.833328 4.50972 0.939995C4.66838 1.04666 4.78572 1.19666 4.86172 1.39C4.93772 1.58333 4.96438 1.81066 4.94172 2.072H4.40372V1.872C4.40372 1.652 4.36838 1.494 4.29772 1.398C4.22838 1.30066 4.11438 1.252 3.95572 1.252C3.77038 1.252 3.63372 1.30866 3.54572 1.422C3.45905 1.534 3.41572 1.7 3.41572 1.92C3.41572 2.12133 3.45905 2.27733 3.54572 2.388C3.63372 2.49733 3.76238 2.552 3.93172 2.552C4.03838 2.552 4.12972 2.52866 4.20572 2.482C4.28172 2.43533 4.33972 2.368 4.37972 2.28L4.92372 2.436C4.84238 2.63333 4.71372 2.78666 4.53772 2.896C4.36305 3.00533 4.17172 3.06 3.96372 3.06ZM3.24772 2.072V1.668H4.67972V2.072H3.24772Z" fill="#BA3826"/>
<path d="M6.68931 3C6.53998 3.028 6.39331 3.04 6.24931 3.036C6.10664 3.03333 5.97864 3.00866 5.86531 2.962C5.75331 2.914 5.66798 2.83733 5.60931 2.732C5.55598 2.63333 5.52798 2.53333 5.52531 2.432C5.52264 2.32933 5.52131 2.21333 5.52131 2.084V0.239995H6.06531V2.052C6.06531 2.136 6.06598 2.212 6.06731 2.28C6.06998 2.34666 6.08398 2.4 6.10931 2.44C6.15731 2.516 6.23398 2.55733 6.33931 2.564C6.44464 2.57066 6.56131 2.56533 6.68931 2.548V3ZM5.15331 1.26V0.839995H6.68931V1.26H5.15331Z" fill="#BA3826"/>
<path d="M7.17065 3V0.839995H7.65065V1.368L7.59865 1.3C7.62665 1.22533 7.66399 1.15733 7.71065 1.096C7.75732 1.03466 7.81465 0.983995 7.88265 0.943995C7.93465 0.911995 7.99132 0.887328 8.05265 0.869995C8.11399 0.851329 8.17732 0.839995 8.24265 0.835995C8.30799 0.830662 8.37332 0.831995 8.43865 0.839995V1.348C8.37865 1.32933 8.30865 1.32333 8.22865 1.33C8.14999 1.33533 8.07865 1.35333 8.01465 1.384C7.95065 1.41333 7.89665 1.45266 7.85265 1.502C7.80865 1.55 7.77532 1.60733 7.75265 1.674C7.72999 1.73933 7.71865 1.81333 7.71865 1.896V3H7.17065Z" fill="#BA3826"/>
<path d="M9.01697 3.96L9.43297 2.816L9.44097 3.152L8.50097 0.839995H9.06497L9.69697 2.476H9.56897L10.197 0.839995H10.741L9.52097 3.96H9.01697Z" fill="#BA3826"/>
</svg>
