<svg width="18" height="9" viewBox="0 0 18 9" fill="none" xmlns="http://www.w3.org/2000/svg">
<path d="M9 5.0625C10.2225 5.0625 11.3025 5.355 12.18 5.7375C12.99 6.0975 13.5 6.9075 13.5 7.785V9H4.5V7.7925C4.5 6.9075 5.01 6.0975 5.82 5.745C6.6975 5.355 7.7775 5.0625 9 5.0625ZM3 5.25C3.825 5.25 4.5 4.575 4.5 3.75C4.5 2.925 3.825 2.25 3 2.25C2.175 2.25 1.5 2.925 1.5 3.75C1.5 4.575 2.175 5.25 3 5.25ZM3.8475 6.075C3.57 6.03 3.2925 6 3 6C2.2575 6 1.5525 6.1575 0.915 6.435C0.36 6.675 0 7.215 0 7.8225V9H3.375V7.7925C3.375 7.17 3.5475 6.585 3.8475 6.075ZM15 5.25C15.825 5.25 16.5 4.575 16.5 3.75C16.5 2.925 15.825 2.25 15 2.25C14.175 2.25 13.5 2.925 13.5 3.75C13.5 4.575 14.175 5.25 15 5.25ZM18 7.8225C18 7.215 17.64 6.675 17.085 6.435C16.4475 6.1575 15.7425 6 15 6C14.7075 6 14.43 6.03 14.1525 6.075C14.4525 6.585 14.625 7.17 14.625 7.7925V9H18V7.8225ZM9 0C10.245 0 11.25 1.005 11.25 2.25C11.25 3.495 10.245 4.5 9 4.5C7.755 4.5 6.75 3.495 6.75 2.25C6.75 1.005 7.755 0 9 0Z" fill="#8A8B96"/>
</svg>
