<svg width="9" height="11" viewBox="0 0 9 11" fill="none" xmlns="http://www.w3.org/2000/svg">
<path d="M7.45071 3.88235H6.42857V0.647059C6.42857 0.291176 6.13929 0 5.78571 0H3.21429C2.86071 0 2.57143 0.291176 2.57143 0.647059V3.88235H1.54929C0.977143 3.88235 0.687857 4.58118 1.09286 4.98882L4.04357 7.95882C4.29429 8.21118 4.69929 8.21118 4.95 7.95882L7.90071 4.98882C8.30571 4.58118 8.02286 3.88235 7.45071 3.88235ZM0 10.3529C0 10.7088 0.289286 11 0.642857 11H8.35714C8.71071 11 9 10.7088 9 10.3529C9 9.99706 8.71071 9.70588 8.35714 9.70588H0.642857C0.289286 9.70588 0 9.99706 0 10.3529Z" fill="#8A8B96"/>
</svg>
