<svg width="22" height="22" viewBox="0 0 22 22" fill="none" xmlns="http://www.w3.org/2000/svg">
<path fill-rule="evenodd" clip-rule="evenodd" d="M18.702 12.4484C19.0299 12.6226 19.2828 12.8976 19.4608 13.1726C19.8074 13.7409 19.7793 14.4376 19.4421 15.0518L18.7863 16.1518C18.4397 16.7384 17.7933 17.1051 17.1282 17.1051C16.8003 17.1051 16.4349 17.0134 16.1352 16.8301C15.8916 16.6743 15.6106 16.6193 15.3108 16.6193C14.3834 16.6193 13.6058 17.3801 13.5777 18.2876C13.5777 19.3418 12.7159 20.1668 11.6386 20.1668H10.3645C9.27784 20.1668 8.41599 19.3418 8.41599 18.2876C8.39725 17.3801 7.61971 16.6193 6.69228 16.6193C6.38314 16.6193 6.1021 16.6743 5.86791 16.8301C5.56813 17.0134 5.19341 17.1051 4.8749 17.1051C4.20041 17.1051 3.55402 16.7384 3.20741 16.1518L2.56102 15.0518C2.21441 14.4559 2.19567 13.7409 2.54229 13.1726C2.69217 12.8976 2.97321 12.6226 3.29172 12.4484C3.55402 12.3201 3.72265 12.1093 3.8819 11.8618C4.3503 11.0734 4.06926 10.0376 3.27299 9.57009C2.34556 9.04759 2.04579 7.88342 2.57976 6.97592L3.20741 5.89425C3.75075 4.98675 4.91238 4.66592 5.84917 5.19759C6.66418 5.63759 7.72276 5.34425 8.20052 4.56509C8.35041 4.30842 8.43472 4.03342 8.41599 3.75842C8.39725 3.40092 8.5003 3.06175 8.67829 2.78675C9.0249 2.21842 9.65255 1.85175 10.3364 1.83342H11.6573C12.3505 1.83342 12.9782 2.21842 13.3248 2.78675C13.4934 3.06175 13.6058 3.40092 13.5777 3.75842C13.559 4.03342 13.6433 4.30842 13.7932 4.56509C14.271 5.34425 15.3295 5.63759 16.1539 5.19759C17.0813 4.66592 18.2523 4.98675 18.7863 5.89425L19.4139 6.97592C19.9573 7.88342 19.6575 9.04759 18.7207 9.57009C17.9244 10.0376 17.6434 11.0734 18.1212 11.8618C18.2711 12.1093 18.4397 12.3201 18.702 12.4484ZM8.35041 11.0093C8.35041 12.4484 9.54014 13.5943 11.0109 13.5943C12.4817 13.5943 13.6433 12.4484 13.6433 11.0093C13.6433 9.57009 12.4817 8.41509 11.0109 8.41509C9.54014 8.41509 8.35041 9.57009 8.35041 11.0093Z" fill="#8A8B96"/>
</svg>
