<svg width="8" height="8" viewBox="0 0 8 8" fill="none" xmlns="http://www.w3.org/2000/svg">
<g id="Iconly/Bold/Shield Done">
<g id="Shield Done">
<path id="Shield Done_2" fill-rule="evenodd" clip-rule="evenodd" d="M3.90932 7.30463C3.94624 7.32392 3.98751 7.33373 4.02879 7.3334C4.07007 7.33307 4.11101 7.32294 4.14826 7.30333L5.33755 6.66757C5.67481 6.48779 5.93891 6.28677 6.14495 6.05273C6.59295 5.54282 6.83759 4.89202 6.83323 4.22096L6.81913 2.00741C6.81779 1.75245 6.65034 1.52495 6.40268 1.44225L4.1902 0.699936C4.05698 0.654828 3.911 0.655809 3.78013 0.702224L1.57604 1.47102C1.32973 1.55698 1.16529 1.78612 1.16663 2.0414L1.18073 4.25332C1.18509 4.92536 1.43812 5.57321 1.8935 6.0779C2.10156 6.30867 2.36801 6.50675 2.70896 6.68359L3.90932 7.30463ZM3.59447 4.70306C3.64413 4.75078 3.70856 4.77432 3.773 4.77366C3.83743 4.77333 3.90152 4.74915 3.95052 4.70077L5.25022 3.41945C5.34787 3.32302 5.34686 3.16809 5.2482 3.07297C5.14921 2.97785 4.98981 2.9785 4.89215 3.07493L3.7693 4.1817L3.30956 3.73978C3.21056 3.64466 3.0515 3.64564 2.95351 3.74207C2.85586 3.83849 2.85686 3.99343 2.95586 4.08855L3.59447 4.70306Z" fill="#1D9654"/>
</g>
</g>
</svg>
