<svg width="15" height="13" viewBox="0 0 15 13" fill="none" xmlns="http://www.w3.org/2000/svg">
<path d="M1.57483 13H13.4252C14.637 13 15.3924 11.7235 14.7865 10.7069L8.86129 0.762458C8.2554 -0.254153 6.7446 -0.254153 6.13871 0.762458L0.213535 10.7069C-0.392359 11.7235 0.363041 13 1.57483 13V13ZM7.5 7.64942C7.06722 7.64942 6.71312 7.30545 6.71312 6.88505V5.35631C6.71312 4.93591 7.06722 4.59194 7.5 4.59194C7.93278 4.59194 8.28688 4.93591 8.28688 5.35631V6.88505C8.28688 7.30545 7.93278 7.64942 7.5 7.64942ZM8.28688 10.7069H6.71312V9.17816H8.28688V10.7069Z" fill="#8A8B96"/>
</svg>
