<svg width="3636" height="823" viewBox="0 0 3636 823" fill="none" xmlns="http://www.w3.org/2000/svg">
<path d="M3636 423.258C3636 591.964 3531.26 736.26 3383.13 794.937C3352.37 746.69 3330.97 692.143 3321.43 633.727C3408.57 602.36 3471.04 517.339 3471.04 417.376C3471.04 290.757 3370.81 188.112 3247.17 188.112C3230.41 188.112 3214.08 189.998 3198.37 193.575C3161.32 136.598 3109.67 94.0995 3051.23 68.1651C3106.37 39.6348 3168.99 23.516 3235.39 23.516C3456.64 23.516 3636 202.487 3636 423.258Z" fill="#9568A6"/>
<path d="M2737.32 112.06L2763.93 158.059C2805 134.403 2849.37 121.65 2893.69 118.9L2893.69 117.571C2893.69 99.2676 2889.5 81.941 2882.02 66.4948C2832.54 70.7536 2783.18 85.6416 2737.32 112.06Z" fill="#9568A6"/>
<path fill-rule="evenodd" clip-rule="evenodd" d="M2658.04 117.571C2658.04 52.6384 2710.79 0 2775.87 0C2822.6 0 2862.97 27.1451 2882.02 66.4948C2832.54 70.7536 2783.18 85.6416 2737.32 112.06L2763.93 158.059C2805 134.403 2849.37 121.65 2893.69 118.9C2892.97 183.221 2840.5 235.142 2775.87 235.142C2710.79 235.142 2658.04 182.504 2658.04 117.571ZM2969.8 123.981C2886.98 197.214 2834.78 304.153 2834.78 423.258C2834.78 644.029 3014.14 823 3235.39 823L3235.58 823C3205.88 765.309 3185.81 702.069 3177.42 635.294C3087.94 605.273 3023.3 519.054 3023.3 417.376C3023.3 332.544 3068.29 258.473 3135.17 218.823C3147.89 233.27 3159.38 249.173 3169.38 266.462L3215.48 239.905C3145.29 118.607 3013.21 55.2057 2882.02 66.4948C2889.5 81.941 2893.69 99.2676 2893.69 117.571L2893.69 118.9C2919.29 117.311 2944.88 119.063 2969.8 123.981ZM2969.8 123.981C3032.65 136.383 3091.25 168.926 3135.17 218.823C3144.13 213.509 3153.49 208.814 3163.18 204.794C3125.22 150.275 3071.94 111.513 3012.6 90.9828C2997.59 101.027 2983.29 112.057 2969.8 123.981Z" fill="#9568A6"/>
<path d="M3163.18 204.794C3125.22 150.275 3071.94 111.513 3012.6 90.9828C2997.59 101.027 2983.29 112.057 2969.8 123.981C3032.65 136.383 3091.25 168.926 3135.17 218.823C3144.13 213.509 3153.49 208.814 3163.18 204.794Z" fill="#9568A6"/>
<path d="M0 0.444713H199.215L461.339 461.627V0.444713H650.068V817.995H450.854L188.73 335.85V817.995H0V0.444713Z" fill="#9568A6"/>
<path d="M1195.29 817.995H985.588V0.444713H1195.29V817.995Z" fill="#9568A6"/>
<path d="M1866.33 0.444713H1625.17L1467.9 817.995H1698.57L1782.45 293.924C1831.38 465.121 1929.24 809.61 1929.24 817.995C1929.24 826.381 2062.05 821.489 2128.45 817.995L2275.24 293.924L2348.63 817.995H2579.3L2422.03 0.444713H2180.87L2023.6 534.997L1866.33 0.444713Z" fill="#9568A6"/>
</svg>
