<svg width="44" height="37" viewBox="0 0 44 37" fill="none" xmlns="http://www.w3.org/2000/svg">
<path d="M44 19.0286C44 26.6132 39.2877 33.1004 32.6231 35.7384C31.239 33.5693 30.2763 31.117 29.8469 28.4908C33.7676 27.0806 36.5783 23.2583 36.5783 18.7642C36.5783 13.0717 32.0688 8.45705 26.506 8.45705C25.7519 8.45705 25.0172 8.54184 24.3105 8.70262C22.6434 6.14111 20.3196 4.23047 17.6901 3.06453C20.1708 1.78188 22.9885 1.05722 25.9759 1.05722C35.9303 1.05722 44 9.10329 44 19.0286Z" fill="#9568A6"/>
<path d="M23.006 11.9795L25.08 10.7855C21.9223 5.33226 15.9795 2.48191 10.0774 2.98944C9.2203 1.22037 7.40369 0 5.30121 0C2.37343 0 0 2.36649 0 5.2857C0 8.20492 2.37343 10.5714 5.30121 10.5714C8.20898 10.5714 10.5703 8.17739 10.6024 5.2857C11.7546 5.21427 12.9055 5.35276 14.0268 5.57386C10.3005 8.86626 7.9518 13.674 7.9518 19.0286C7.9518 28.9539 16.0215 37 25.9759 37L25.9843 37C24.6482 34.4064 23.7452 31.5632 23.3679 28.5612C19.3417 27.2115 16.4337 23.3354 16.4337 18.7642C16.4337 14.9503 18.4579 11.6203 21.4669 9.83772C22.0391 10.4872 22.5559 11.2022 23.006 11.9795Z" fill="#9568A6"/>
</svg>
