<svg width="129" height="28" viewBox="0 0 129 28" fill="none" xmlns="http://www.w3.org/2000/svg">
<path d="M129 14.4C129 20.1397 125.284 25.0489 120.029 27.0453C118.937 25.4038 118.178 23.548 117.839 21.5606C120.931 20.4934 123.148 17.6009 123.148 14.1999C123.148 9.8921 119.592 6.39993 115.205 6.39993C114.61 6.39993 114.031 6.4641 113.474 6.58577C112.159 4.64733 110.327 3.20144 108.253 2.3191C110.209 1.34845 112.431 0.800058 114.787 0.800058C122.637 0.800058 129 6.88897 129 14.4Z" fill="url(#paint0_linear_853_143)"/>
<path d="M0 0.01513H7.06784L16.3676 15.7054V0.01513H23.0635V27.8297H15.9956L6.69585 11.4262V27.8297H0V0.01513Z" fill="url(#paint1_linear_853_143)"/>
<path d="M42.4071 27.8297H34.9672V0.01513H42.4071V27.8297Z" fill="url(#paint2_linear_853_143)"/>
<path d="M66.2145 0.01513H57.6587L52.0788 27.8297H60.2626L63.2386 9.99986C64.9745 15.8243 68.4465 27.5445 68.4465 27.8297C68.4465 28.115 73.1584 27.9486 75.5143 27.8297L80.7222 9.99986L83.3261 27.8297H91.51L85.9301 0.01513H77.3743L71.7944 18.2016L66.2145 0.01513Z" fill="url(#paint3_linear_853_143)"/>
<path d="M112.445 9.06554L114.08 8.16201C111.59 4.03522 106.904 1.8782 102.25 2.26228C101.574 0.923526 100.142 0 98.4838 0C96.175 0 94.3035 1.79086 94.3035 3.99999C94.3035 6.20913 96.175 7.99998 98.4838 7.99998C100.777 7.99998 102.638 6.23351 102.664 4.04521C103.572 3.99116 104.48 4.05074 105.364 4.21805C102.426 6.7096 100.574 10.3479 100.574 14.4C100.574 21.9111 106.937 28 114.787 28L114.794 28C113.74 26.0373 113.028 23.8857 112.73 21.6139C109.555 20.5925 107.262 17.6592 107.262 14.1999C107.262 11.3138 108.859 8.79374 111.231 7.44476C111.683 7.93629 112.09 8.47732 112.445 9.06554Z" fill="url(#paint4_linear_853_143)"/>
<defs>
<linearGradient id="paint0_linear_853_143" x1="11" y1="14" x2="117.5" y2="14" gradientUnits="userSpaceOnUse">
<stop stop-color="#9568A6"/>
<stop offset="1" stop-color="#AC4ECF"/>
</linearGradient>
<linearGradient id="paint1_linear_853_143" x1="11" y1="14" x2="117.5" y2="14" gradientUnits="userSpaceOnUse">
<stop stop-color="#9568A6"/>
<stop offset="1" stop-color="#AC4ECF"/>
</linearGradient>
<linearGradient id="paint2_linear_853_143" x1="11" y1="14" x2="117.5" y2="14" gradientUnits="userSpaceOnUse">
<stop stop-color="#9568A6"/>
<stop offset="1" stop-color="#AC4ECF"/>
</linearGradient>
<linearGradient id="paint3_linear_853_143" x1="11" y1="14" x2="117.5" y2="14" gradientUnits="userSpaceOnUse">
<stop stop-color="#9568A6"/>
<stop offset="1" stop-color="#AC4ECF"/>
</linearGradient>
<linearGradient id="paint4_linear_853_143" x1="11" y1="14" x2="117.5" y2="14" gradientUnits="userSpaceOnUse">
<stop stop-color="#9568A6"/>
<stop offset="1" stop-color="#AC4ECF"/>
</linearGradient>
</defs>
</svg>
