<svg width="47" height="41" viewBox="0 0 47 41" fill="none" xmlns="http://www.w3.org/2000/svg">
<path d="M47 21.0858C47 29.4903 41.9664 36.6788 34.8474 39.602C33.3689 37.1984 32.3406 34.481 31.8819 31.5708C36.0699 30.0082 39.0723 25.7727 39.0723 20.7927C39.0723 14.4849 34.2553 9.37132 28.3132 9.37132C27.5077 9.37132 26.7229 9.46528 25.968 9.64345C24.1873 6.80501 21.705 4.68782 18.8963 3.39583C21.5461 1.97452 24.5559 1.17151 27.747 1.17151C38.3801 1.17151 47 10.0874 47 21.0858Z" fill="url(#paint0_linear_853_144)"/>
<path d="M24.5746 13.2745L26.79 11.9515C23.417 5.90872 17.069 2.75022 10.7645 3.31262C9.84895 1.35231 7.90848 0 5.66265 0C2.53526 0 0 2.62233 0 5.85713C0 9.09193 2.53526 11.7143 5.66265 11.7143C8.76868 11.7143 11.291 9.06143 11.3253 5.85713C12.556 5.77798 13.7855 5.93144 14.9831 6.17644C11.0028 9.82477 8.49397 15.1522 8.49397 21.0858C8.49397 32.0841 17.1138 41 27.747 41L27.7559 41C26.3288 38.126 25.3642 34.9755 24.9611 31.6489C20.6604 30.1533 17.5542 25.8581 17.5542 20.7927C17.5542 16.5666 19.7164 12.8766 22.9305 10.9013C23.5417 11.621 24.0938 12.4132 24.5746 13.2745Z" fill="url(#paint1_linear_853_144)"/>
<defs>
<linearGradient id="paint0_linear_853_144" x1="4.00775" y1="20.5" x2="42.8101" y2="20.5" gradientUnits="userSpaceOnUse">
<stop stop-color="#9568A6"/>
<stop offset="1" stop-color="#AC4ECF"/>
</linearGradient>
<linearGradient id="paint1_linear_853_144" x1="4.00775" y1="20.5" x2="42.8101" y2="20.5" gradientUnits="userSpaceOnUse">
<stop stop-color="#9568A6"/>
<stop offset="1" stop-color="#AC4ECF"/>
</linearGradient>
</defs>
</svg>
