<svg width="138" height="120" viewBox="0 0 138 120" fill="none" xmlns="http://www.w3.org/2000/svg">
<g opacity="0.5" clip-path="url(#clip0_747_515)">
<path d="M61.6468 61.0297L64.7845 60.2702C63.0815 51.727 56.7425 45.5371 49.0356 43.8429C48.6955 41.1387 46.9054 38.7808 44.2364 37.9362C40.5198 36.7599 36.5063 38.9633 35.2722 42.8575C34.038 46.7518 36.0504 50.8622 39.767 52.0384C43.4583 53.2066 47.4679 50.9617 48.7313 47.1171C50.224 47.4847 51.6266 48.1318 52.9564 48.8772C56.7757 51.3862 58.3532 53.39 60.5985 57.5543C61.0503 58.6506 61.4041 59.812 61.6468 61.0297Z" fill="#9063A0"/>
<path d="M138 118.512L39.2131 120L0 113.058H61.217L138 118.512Z" fill="#E6E6E6"/>
<path d="M113.758 31.5702C122.486 31.5702 129.561 24.503 129.561 15.7851C129.561 7.06724 122.486 0 113.758 0C105.031 0 97.9558 7.06724 97.9558 15.7851C97.9558 24.503 105.031 31.5702 113.758 31.5702Z" fill="#A72A48"/>
<path d="M27.9553 113.883C27.9553 113.883 28.1865 109.045 32.9251 109.607Z" fill="#9568A6"/>
<path d="M26.6165 109.279C27.9263 109.279 28.9882 108.218 28.9882 106.91C28.9882 105.601 27.9263 104.541 26.6165 104.541C25.3067 104.541 24.2449 105.601 24.2449 106.91C24.2449 108.218 25.3067 109.279 26.6165 109.279Z" fill="#202024"/>
<path d="M26.8999 110.899H26.2305V115.58H26.8999V110.899Z" fill="#9568A6"/>
<path d="M106.058 114.709C106.058 114.709 106.289 109.871 111.028 110.434Z" fill="#9568A6"/>
<path d="M104.719 110.105C106.029 110.105 107.091 109.045 107.091 107.736C107.091 106.428 106.029 105.367 104.719 105.367C103.409 105.367 102.348 106.428 102.348 107.736C102.348 109.045 103.409 110.105 104.719 110.105Z" fill="#202024"/>
<path d="M105.003 111.726H104.333V116.407H105.003V111.726Z" fill="#9568A6"/>
<path d="M117.476 115.536C117.476 115.536 117.707 110.698 122.446 111.26Z" fill="#9568A6"/>
<path d="M116.137 110.932C117.447 110.932 118.509 109.871 118.509 108.563C118.509 107.254 117.447 106.194 116.137 106.194C114.827 106.194 113.765 107.254 113.765 108.563C113.765 109.871 114.827 110.932 116.137 110.932Z" fill="#202024"/>
<path d="M116.42 112.552H115.751V117.233H116.42V112.552Z" fill="#9568A6"/>
<path d="M46.6538 111.569C46.6538 111.569 46.885 106.731 51.6236 107.293Z" fill="#9568A6"/>
<path d="M45.3148 106.965C46.6246 106.965 47.6864 105.904 47.6864 104.596C47.6864 103.287 46.6246 102.227 45.3148 102.227C44.0049 102.227 42.9431 103.287 42.9431 104.596C42.9431 105.904 44.0049 106.965 45.3148 106.965Z" fill="#202024"/>
<path d="M45.5984 108.585H44.929V113.266H45.5984V108.585Z" fill="#9568A6"/>
<path d="M11.4082 112.395C11.4082 112.395 11.6394 107.557 16.378 108.119Z" fill="#9568A6"/>
<path d="M10.0692 107.791C11.379 107.791 12.4408 106.731 12.4408 105.422C12.4408 104.114 11.379 103.053 10.0692 103.053C8.75933 103.053 7.69751 104.114 7.69751 105.422C7.69751 106.731 8.75933 107.791 10.0692 107.791Z" fill="#202024"/>
<path d="M10.3528 109.411H9.68335V114.092H10.3528V109.411Z" fill="#9568A6"/>
<path d="M68.7498 103.988C83.0205 103.988 94.5892 92.4322 94.5892 78.1773C94.5892 63.9223 83.0205 52.3665 68.7498 52.3665C54.4791 52.3665 42.9104 63.9223 42.9104 78.1773C42.9104 92.4322 54.4791 103.988 68.7498 103.988Z" fill="#9568A6"/>
<path d="M52.4824 80.2492C53.1242 79.4818 53.9268 78.8645 54.8336 78.4409C55.7403 78.0173 56.7292 77.7977 57.7302 77.7977C58.7312 77.7977 59.7201 78.0173 60.6268 78.4409C61.5336 78.8645 62.3362 79.4818 62.978 80.2492C64.076 79.2021 64.835 77.8504 65.1571 76.3685C65.4791 74.8866 65.3494 73.3423 64.7848 71.9346C64.2201 70.527 63.2464 69.3205 61.989 68.4707C60.7317 67.6209 59.2483 67.1667 57.7302 67.1667C56.2121 67.1667 54.7287 67.6209 53.4714 68.4707C52.214 69.3205 51.2403 70.527 50.6756 71.9346C50.111 73.3423 49.9813 74.8866 50.3033 76.3685C50.6254 77.8504 51.3843 79.2021 52.4824 80.2492Z" fill="white"/>
<path d="M73.002 80.2492C73.6437 79.4818 74.4463 78.8645 75.3531 78.4409C76.2599 78.0173 77.2487 77.7977 78.2497 77.7977C79.2508 77.7977 80.2396 78.0173 81.1464 78.4409C82.0531 78.8645 82.8557 79.4818 83.4975 80.2492C84.5956 79.2021 85.3546 77.8505 85.6766 76.3685C85.9986 74.8866 85.869 73.3423 85.3043 71.9346C84.7397 70.527 83.7659 69.3205 82.5085 68.4707C81.2512 67.6209 79.7679 67.1667 78.2497 67.1667C76.7316 67.1667 75.2483 67.6209 73.9909 68.4707C72.7335 69.3205 71.7598 70.527 71.1951 71.9346C70.6305 73.3423 70.5008 74.8866 70.8229 76.3685C71.1449 77.8505 71.9039 79.2021 73.002 80.2492Z" fill="white"/>
<path d="M55.1377 74.7845C56.5815 74.7845 57.752 73.6154 57.752 72.1731C57.752 70.7309 56.5815 69.5618 55.1377 69.5618C53.6939 69.5618 52.5234 70.7309 52.5234 72.1731C52.5234 73.6154 53.6939 74.7845 55.1377 74.7845Z" fill="#9568A6"/>
<path d="M75.6563 74.7845C77.1001 74.7845 78.2705 73.6154 78.2705 72.1731C78.2705 70.7309 77.1001 69.5618 75.6563 69.5618C74.2124 69.5618 73.042 70.7309 73.042 72.1731C73.042 73.6154 74.2124 74.7845 75.6563 74.7845Z" fill="#9568A6"/>
<path d="M50.1303 87.6666C51.8092 87.6666 53.1702 86.3071 53.1702 84.6301C53.1702 82.953 51.8092 81.5935 50.1303 81.5935C48.4514 81.5935 47.0903 82.953 47.0903 84.6301C47.0903 86.3071 48.4514 87.6666 50.1303 87.6666Z" fill="#A72A48"/>
<path d="M85.0895 87.6666C86.7684 87.6666 88.1294 86.3071 88.1294 84.6301C88.1294 82.953 86.7684 81.5935 85.0895 81.5935C83.4106 81.5935 82.0496 82.953 82.0496 84.6301C82.0496 86.3071 83.4106 87.6666 85.0895 87.6666Z" fill="#A72A48"/>
<path d="M67.6097 78.5569L65.3298 88.4257L69.1297 84.6301L67.6097 78.5569Z" fill="#A72A48"/>
<path d="M79.3247 116.514L76.7362 114.344L76.7965 116.514H75.9926L75.9284 114.219L72.4335 116.514H70.9705L75.9023 113.276L75.7112 106.477L75.5685 101.342L76.3705 101.32L76.5152 106.477L76.7061 113.27L80.5747 116.514H79.3247Z" fill="#9568A6"/>
<path d="M67.1642 116.514L64.5758 114.344L64.6361 116.514H63.8343L63.7699 114.219L60.2751 116.514H58.812L63.7418 113.276L63.5509 106.477L63.4082 101.342L64.212 101.32L64.3567 106.477L64.5456 113.27L68.4143 116.514H67.1642Z" fill="#9568A6"/>
<path d="M69.1298 50.4687C68.4208 50.4687 67.7954 51.0188 67.3772 51.8638C67.0086 50.5932 66.2342 49.7096 65.3299 49.7096C65.2685 49.7157 65.2075 49.7259 65.1474 49.7402C64.7998 48.3836 63.9919 47.4321 63.05 47.4321C61.7908 47.4321 60.77 49.1315 60.77 51.2278C60.77 53.3241 61.7908 55.0235 63.05 55.0235C63.1114 55.0174 63.1724 55.0072 63.2325 54.9929C63.5801 56.3495 64.388 57.301 65.3299 57.301C66.0389 57.301 66.6644 56.7508 67.0825 55.9058C67.4511 57.1765 68.2255 58.0601 69.1298 58.0601C70.389 58.0601 71.4098 56.3607 71.4098 54.2644C71.4098 52.1681 70.389 50.4687 69.1298 50.4687Z" fill="#9568A6"/>
<path d="M44.4963 87.9585C43.4983 87.9585 42.5101 87.7621 41.588 87.3806C40.666 86.9991 39.8282 86.44 39.1225 85.735C38.4167 85.0301 37.857 84.1932 37.475 83.2722C37.0931 82.3512 36.8965 81.364 36.8965 80.3671V76.5714C36.8965 74.558 37.6972 72.6271 39.1225 71.2034C40.5477 69.7798 42.4807 68.98 44.4963 68.98V87.9585Z" fill="#202024"/>
<path d="M93.0034 68.98C94.0014 68.98 94.9897 69.1763 95.9117 69.5578C96.8338 69.9393 97.6716 70.4985 98.3773 71.2034C99.083 71.9084 99.6428 72.7452 100.025 73.6663C100.407 74.5873 100.603 75.5745 100.603 76.5714V80.3671C100.603 81.364 100.407 82.3512 100.025 83.2722C99.6428 84.1932 99.083 85.0301 98.3773 85.735C97.6716 86.44 96.8338 86.9991 95.9117 87.3807C94.9897 87.7622 94.0014 87.9585 93.0034 87.9585L93.0034 68.98Z" fill="#202024"/>
<path d="M96.9859 77.1679H95.7801C95.7801 61.8925 83.339 49.465 68.0466 49.465C52.7543 49.465 40.313 61.8925 40.313 77.1679H39.1072C39.1072 61.2283 52.0893 48.2605 68.0466 48.2605C84.0039 48.2605 96.9859 61.2283 96.9859 77.1679Z" fill="#202024"/>
<path d="M26.6661 53.9534L26.6663 53.9529L26.0998 53.7173L23.7096 52.708L22.8529 52.3462L22.7871 52.512L21.6362 55.4147L24.8752 56.7841L24.8922 56.7995L24.6739 57.3135C24.6441 57.3606 24.6186 57.4102 24.5978 57.4619C24.4449 57.8475 24.7337 58.2311 25.0067 58.3391C25.2797 58.4471 25.6249 58.2221 25.7778 57.8364C25.9286 57.456 25.7812 56.9728 25.5152 56.8561L25.5154 56.8556L24.9489 56.62L23.011 55.8675L24.1183 53.0748L23.9542 53.0099L22.8465 55.8036L22.6069 55.7105L23.7189 52.9059L23.7482 52.9183L26.0261 53.8814L26.0431 53.8968L25.8249 54.4109C25.795 54.4579 25.7695 54.5075 25.7487 54.5592C25.5958 54.9448 25.8846 55.3284 26.1576 55.4364C26.4305 55.5444 26.7758 55.3194 26.9287 54.9337C27.0795 54.5534 26.9321 54.0701 26.6661 53.9534Z" fill="#9568A6"/>
<path d="M34.846 53.441C33.6702 52.7695 33.9055 51.2959 33.9055 51.2959C33.8759 50.3386 33.0841 50.4741 33.0841 50.4741L32.796 50.5398C32.6621 50.4777 32.5147 50.4505 32.3675 50.4606L31.9291 50.5343C32.9273 50.7686 32.8453 51.6027 32.8453 51.6027L32.9851 52.578L30.3696 51.524L30.6699 50.8167C30.7114 50.7514 30.7468 50.6824 30.7757 50.6107C30.988 50.075 30.587 49.5423 30.2078 49.3923C29.8287 49.2423 29.3491 49.5549 29.1368 50.0905C28.9273 50.6188 29.132 51.2899 29.5015 51.4521L29.5012 51.4527L30.288 51.78L30.2938 51.7615L34.846 53.441ZM33.5178 51.7274L33.6017 52.6609C33.3056 52.2458 33.1664 51.7393 33.2091 51.2314C33.2021 51.0507 33.1411 50.8762 33.0339 50.7306C33.1987 50.836 33.3311 50.9849 33.4165 51.1609C33.5019 51.3368 33.537 51.5328 33.5178 51.7274Z" fill="#9568A6"/>
<path d="M17.9259 47.2738L17.9262 47.2732L17.1394 46.9459L13.851 45.669L14.681 44.9315C14.8433 44.7152 15.0831 44.5701 15.3501 44.5264C15.6171 44.4827 15.8907 44.5438 16.1137 44.697L15.8561 44.3147C15.8561 44.3147 15.3719 43.6743 14.6942 44.3518C14.6942 44.3518 13.8556 45.5867 12.5383 45.2719L17.037 47.1739L17.0606 47.1952L16.7574 47.9092C16.7159 47.9745 16.6805 48.0435 16.6517 48.1153C16.4393 48.6509 16.8404 49.1836 17.2195 49.3336C17.5987 49.4837 18.0782 49.1711 18.2906 48.6355C18.5 48.1072 18.2953 47.436 17.9259 47.2738Z" fill="#9568A6"/>
<path d="M29.9646 43.0948L29.6615 43.8088C29.62 43.8741 29.5846 43.9431 29.5557 44.0149C29.3433 44.5505 29.7444 45.0832 30.1236 45.2332C30.5027 45.3832 30.9823 45.0706 31.1946 44.5351C31.4041 44.0068 31.1994 43.3356 30.8299 43.1734L30.8302 43.1728L30.0434 42.8455L27.3519 41.8004L28.8897 37.9217L28.6618 37.8315L27.1234 41.7117L26.7906 41.5824L28.335 37.6871L28.3757 37.7043L31.5395 39.0419L31.5631 39.0633L31.2599 39.7773C31.2185 39.8426 31.183 39.9116 31.1542 39.9833C30.9418 40.5189 31.3429 41.0517 31.722 41.2017C32.1012 41.3517 32.5807 41.0391 32.7931 40.5035C33.0026 39.9752 32.7979 39.3041 32.4284 39.1419L32.4287 39.1413L31.6419 38.814L28.4265 37.4562L28.3221 37.4121L27.1322 36.9097L25.4424 41.1715L29.941 43.0735L29.9646 43.0948Z" fill="#9568A6"/>
<path d="M15.7084 21.268L15.7089 21.2669L14.3545 20.7035L8.69377 18.5054L10.1225 17.2357C10.1225 17.2357 11.0728 15.9185 12.5888 16.8321L12.1455 16.1739C12.1455 16.1739 11.3119 15.0716 10.1452 16.2378C10.1452 16.2378 8.70163 18.3637 6.43408 17.8218L14.1782 21.0958L14.2188 21.1326L13.697 22.3617C13.6256 22.4742 13.5646 22.5929 13.5149 22.7165C13.1494 23.6385 13.8398 24.5556 14.4925 24.8138C15.1452 25.072 15.9707 24.5339 16.3362 23.6119C16.6968 22.7025 16.3444 21.5471 15.7084 21.268Z" fill="#9568A6"/>
<path d="M19.8649 39.7321C17.0537 38.1266 17.6163 34.6034 17.6163 34.6034C17.5455 32.3145 15.6524 32.6385 15.6524 32.6385L14.9634 32.7956C14.6433 32.6472 14.2909 32.5821 13.9389 32.6063L12.8908 32.7825C15.2773 33.3426 15.0813 35.3369 15.0813 35.3369L15.4156 37.6686L9.16222 35.1487L9.88021 33.4577C9.97943 33.3015 10.0641 33.1366 10.1331 32.965C10.6409 31.6844 9.6819 30.4106 8.77536 30.052C7.86882 29.6933 6.72232 30.4407 6.21459 31.7213C5.71377 32.9844 6.2032 34.5891 7.08661 34.9768L7.08586 34.9783L8.96703 35.7608L8.98103 35.7165L19.8649 39.7321ZM16.6893 35.635L16.8906 37.8747C15.7099 36.3091 15.9512 34.449 15.9512 34.449C15.9345 34.017 15.7887 33.6 15.5324 33.2516C16.8887 34.0624 16.6893 35.635 16.6893 35.635Z" fill="#9568A6"/>
</g>
<defs>
<clipPath id="clip0_747_515">
<rect width="138" height="120" fill="white"/>
</clipPath>
</defs>
</svg>
