<svg width="67" height="67" viewBox="0 0 67 67" fill="none" xmlns="http://www.w3.org/2000/svg">
<g opacity="0.1">
<path d="M52 34.5143C52 41.8939 47.609 48.2058 41.3988 50.7725C40.109 48.662 39.212 46.276 38.8119 43.7207C42.4652 42.3487 45.0843 38.6297 45.0843 34.257C45.0843 28.7184 40.8823 24.2285 35.6988 24.2285C34.9961 24.2285 34.3115 24.311 33.6529 24.4674C32.0996 21.9751 29.9342 20.1161 27.484 18.9817C29.7956 17.7337 32.4211 17.0286 35.2048 17.0286C44.4805 17.0286 52 24.8573 52 34.5143Z" fill="#9568A6"/>
<path d="M32.4374 27.6557L34.37 26.494C31.4276 21.1881 25.89 18.4148 20.3903 18.9086C19.5916 17.1874 17.8989 16 15.9398 16C13.2116 16 11 18.3025 11 21.1428C11 23.9832 13.2116 26.2857 15.9398 26.2857C18.6493 26.2857 20.8496 23.9564 20.8795 21.1428C21.9531 21.0733 23.0256 21.2081 24.0704 21.4232C20.5982 24.6266 18.4096 29.3044 18.4096 34.5143C18.4096 44.1714 25.9291 52 35.2048 52L35.2126 52C33.9677 49.4765 33.1262 46.7102 32.7746 43.7893C29.0229 42.4761 26.3132 38.7047 26.3132 34.257C26.3132 30.5463 28.1994 27.3062 31.0032 25.5718C31.5364 26.2038 32.018 26.8994 32.4374 27.6557Z" fill="#9568A6"/>
</g>
<g opacity="0.58">
<path d="M41.2342 40L41.5715 40.9556C41.2061 41.0904 40.9572 41.3292 40.8247 41.6723C40.6922 42.0112 40.6259 42.4033 40.6259 42.8484V44.098C40.6259 44.5105 40.5356 44.8841 40.3549 45.219C40.1782 45.5539 39.8972 45.8213 39.5117 46.0214C39.1263 46.2175 38.6224 46.3155 38 46.3155V45.3844C38.3814 45.3844 38.6545 45.268 38.8191 45.0352C38.9877 44.8025 39.072 44.49 39.072 44.098V42.8484C39.072 42.4196 39.1363 42.0194 39.2648 41.6478C39.3973 41.2721 39.6201 40.9433 39.9333 40.6616C40.2505 40.3757 40.6841 40.1552 41.2342 40ZM41.5715 51.0383L41.2342 52C40.6841 51.8407 40.2505 51.6182 39.9333 51.3323C39.6201 51.0505 39.3973 50.7218 39.2648 50.3461C39.1363 49.9745 39.072 49.5743 39.072 49.1455V47.8959C39.072 47.6345 39.0339 47.4079 38.9576 47.2159C38.8853 47.024 38.7709 46.877 38.6143 46.7749C38.4577 46.6687 38.253 46.6156 38 46.6156V45.6784C38.6224 45.6784 39.1263 45.7785 39.5117 45.9786C39.8972 46.1746 40.1782 46.44 40.3549 46.7749C40.5356 47.1097 40.6259 47.4834 40.6259 47.8959V49.1455C40.6259 49.4436 40.654 49.7192 40.7102 49.9724C40.7705 50.2256 40.8668 50.4441 40.9993 50.6279C41.1358 50.8116 41.3266 50.9484 41.5715 51.0383Z" fill="white"/>
<path d="M45.673 45.3231V45.0904C45.673 44.682 45.8015 44.3492 46.0584 44.0919C46.3154 43.8305 46.6607 43.6998 47.0944 43.6998C47.5441 43.6998 47.8954 43.8305 48.1483 44.0919C48.4053 44.3492 48.5338 44.682 48.5338 45.0904V45.3231C48.5338 45.7274 48.4073 46.0582 48.1544 46.3155C47.9014 46.5727 47.5521 46.7014 47.1064 46.7014C46.6687 46.7014 46.3194 46.5727 46.0584 46.3155C45.8015 46.0582 45.673 45.7274 45.673 45.3231Z" fill="white"/>
<path d="M54.5385 45.3231V45.0904C54.5385 44.682 54.667 44.3492 54.9239 44.0919C55.1809 43.8305 55.5262 43.6998 55.9598 43.6998C56.4095 43.6998 56.7609 43.8305 57.0138 44.0919C57.2708 44.3492 57.3993 44.682 57.3993 45.0904V45.3231C57.3993 45.7274 57.2728 46.0582 57.0199 46.3155C56.7669 46.5727 56.4176 46.7014 55.9719 46.7014C55.5342 46.7014 55.1849 46.5727 54.9239 46.3155C54.667 46.0582 54.5385 45.7274 54.5385 45.3231Z" fill="white"/>
<path d="M61.4285 40.9556L61.7658 40C62.3199 40.1552 62.7535 40.3757 63.0667 40.6616C63.3799 40.9433 63.6007 41.2721 63.7292 41.6478C63.8617 42.0194 63.9279 42.4196 63.9279 42.8484V44.098C63.9279 44.3594 63.9641 44.586 64.0364 44.7779C64.1086 44.9699 64.2231 45.1189 64.3797 45.2251C64.5403 45.3313 64.747 45.3844 65 45.3844V46.291C64.3776 46.291 63.8737 46.195 63.4883 46.0031C63.1028 45.8111 62.8198 45.5498 62.6391 45.219C62.4584 44.8841 62.3681 44.5105 62.3681 44.098V42.8484C62.3681 42.5503 62.34 42.2746 62.2837 42.0214C62.2315 41.7682 62.1372 41.5498 62.0007 41.366C61.8642 41.1822 61.6734 41.0454 61.4285 40.9556ZM61.7658 52L61.4285 51.0383C61.6734 50.9484 61.8642 50.8116 62.0007 50.6279C62.1372 50.4441 62.2315 50.2256 62.2837 49.9724C62.34 49.7192 62.3681 49.4436 62.3681 49.1455V47.8959C62.3681 47.4834 62.4584 47.1118 62.6391 46.781C62.8198 46.4502 63.1028 46.1889 63.4883 45.9969C63.8737 45.8009 64.3776 45.7029 65 45.7029V46.6156C64.6226 46.6156 64.3495 46.732 64.1809 46.9648C64.0123 47.1975 63.9279 47.5079 63.9279 47.8959V49.1455C63.9279 49.5743 63.8617 49.9745 63.7292 50.3461C63.6007 50.7218 63.3799 51.0505 63.0667 51.3323C62.7535 51.6182 62.3199 51.8407 61.7658 52Z" fill="white"/>
</g>
</svg>
