<svg width="67" height="67" viewBox="0 0 67 67" fill="none" xmlns="http://www.w3.org/2000/svg">
<g opacity="0.1">
<path d="M52 34.5143C52 41.8939 47.609 48.2058 41.3988 50.7725C40.109 48.662 39.212 46.276 38.8119 43.7207C42.4652 42.3487 45.0843 38.6297 45.0843 34.257C45.0843 28.7184 40.8823 24.2285 35.6988 24.2285C34.9961 24.2285 34.3115 24.311 33.6529 24.4674C32.0996 21.9751 29.9342 20.1161 27.484 18.9817C29.7956 17.7337 32.4211 17.0286 35.2048 17.0286C44.4805 17.0286 52 24.8573 52 34.5143Z" fill="#9568A6"/>
<path d="M32.4374 27.6557L34.37 26.494C31.4276 21.1881 25.89 18.4148 20.3903 18.9086C19.5916 17.1874 17.8989 16 15.9398 16C13.2116 16 11 18.3025 11 21.1428C11 23.9832 13.2116 26.2857 15.9398 26.2857C18.6493 26.2857 20.8496 23.9564 20.8795 21.1428C21.9531 21.0733 23.0256 21.2081 24.0704 21.4232C20.5982 24.6266 18.4096 29.3044 18.4096 34.5143C18.4096 44.1714 25.9291 52 35.2048 52L35.2126 52C33.9677 49.4765 33.1262 46.7102 32.7746 43.7893C29.0229 42.4761 26.3132 38.7047 26.3132 34.257C26.3132 30.5463 28.1994 27.3062 31.0032 25.5718C31.5364 26.2038 32.018 26.8994 32.4374 27.6557Z" fill="#9568A6"/>
</g>
<path d="M42.5283 39L42.8962 40.0352C42.4976 40.1812 42.226 40.44 42.0815 40.8116C41.9369 41.1788 41.8647 41.6035 41.8647 42.0858V43.4395C41.8647 43.8863 41.7661 44.2911 41.569 44.6539C41.3763 45.0167 41.0696 45.3064 40.6491 45.5232C40.2286 45.7356 39.6789 45.8418 39 45.8418V44.8331C39.4161 44.8331 39.714 44.707 39.8936 44.4548C40.0775 44.2027 40.1695 43.8642 40.1695 43.4395V42.0858C40.1695 41.6212 40.2396 41.1877 40.3798 40.7851C40.5243 40.3781 40.7674 40.0219 41.1091 39.7167C41.4551 39.407 41.9282 39.1681 42.5283 39ZM42.8962 50.9581L42.5283 52C41.9282 51.8275 41.4551 51.5864 41.1091 51.2767C40.7674 50.9714 40.5243 50.6153 40.3798 50.2083C40.2396 49.8057 40.1695 49.3721 40.1695 48.9076V47.5539C40.1695 47.2707 40.1279 47.0252 40.0447 46.8173C39.9658 46.6093 39.841 46.4501 39.6702 46.3395C39.4993 46.2244 39.276 46.1669 39 46.1669V45.1516C39.6789 45.1516 40.2286 45.26 40.6491 45.4768C41.0696 45.6891 41.3763 45.9767 41.569 46.3395C41.7661 46.7022 41.8647 47.107 41.8647 47.5539V48.9076C41.8647 49.2306 41.8953 49.5292 41.9566 49.8035C42.0223 50.0778 42.1275 50.3144 42.272 50.5135C42.4209 50.7126 42.629 50.8608 42.8962 50.9581Z" fill="#A1A1A3"/>
<path d="M60.1038 40.0352L60.4717 39C61.0762 39.1681 61.5493 39.407 61.8909 39.7167C62.2326 40.0219 62.4735 40.3781 62.6137 40.7851C62.7582 41.1877 62.8305 41.6212 62.8305 42.0858V43.4395C62.8305 43.7226 62.8699 43.9682 62.9488 44.1761C63.0276 44.384 63.1524 44.5455 63.3233 44.6605C63.4985 44.7756 63.724 44.8331 64 44.8331V45.8152C63.3211 45.8152 62.7714 45.7112 62.3509 45.5033C61.9304 45.2954 61.6215 45.0123 61.4244 44.6539C61.2273 44.2911 61.1288 43.8863 61.1288 43.4395V42.0858C61.1288 41.7628 61.0981 41.4642 61.0368 41.1899C60.9799 40.9156 60.8769 40.6789 60.728 40.4798C60.5791 40.2808 60.371 40.1326 60.1038 40.0352ZM60.4717 52L60.1038 50.9581C60.371 50.8608 60.5791 50.7126 60.728 50.5135C60.8769 50.3144 60.9799 50.0778 61.0368 49.8035C61.0981 49.5292 61.1288 49.2306 61.1288 48.9076V47.5539C61.1288 47.107 61.2273 46.7044 61.4244 46.3461C61.6215 45.9877 61.9304 45.7046 62.3509 45.4967C62.7714 45.2843 63.3211 45.1782 64 45.1782V46.1669C63.5883 46.1669 63.2904 46.293 63.1064 46.5452C62.9225 46.7973 62.8305 47.1336 62.8305 47.5539V48.9076C62.8305 49.3721 62.7582 49.8057 62.6137 50.2083C62.4735 50.6153 62.2326 50.9714 61.8909 51.2767C61.5493 51.5864 61.0762 51.8275 60.4717 52Z" fill="#A1A1A3"/>
<path fill-rule="evenodd" clip-rule="evenodd" d="M55.1329 43.7647C55.1329 44.445 55.3127 44.846 55.7084 45.308C56.0083 45.6484 56.1041 46.0854 56.1041 46.5595C56.1041 47.033 55.9485 47.4826 55.6368 47.8475C55.2287 48.2851 54.6533 48.5644 54.0659 48.6129C53.2148 48.6855 52.3631 48.7466 51.5002 48.7466C50.6367 48.7466 49.7856 48.7101 48.9345 48.6129C48.3466 48.5644 47.7711 48.2851 47.3636 47.8475C47.0519 47.4826 46.8958 47.033 46.8958 46.5595C46.8958 46.0854 46.9921 45.6484 47.2914 45.308C47.6995 44.846 47.8675 44.445 47.8675 43.7647V43.5339C47.8675 42.6229 48.0946 42.0271 48.5625 41.4439C49.258 40.5934 50.3729 40.0833 51.476 40.0833H51.5244C52.6512 40.0833 53.8021 40.618 54.4858 41.505C54.9294 42.0762 55.1329 42.6469 55.1329 43.5339V43.7647ZM49.9148 49.8663C49.9148 49.5935 50.1652 49.4686 50.3966 49.4151C50.6674 49.3578 52.3174 49.3578 52.5882 49.4151C52.8197 49.4686 53.07 49.5935 53.07 49.8663C53.0566 50.126 52.9042 50.3562 52.6937 50.5024C52.4208 50.7152 52.1005 50.8499 51.7656 50.8985C51.5805 50.9225 51.3985 50.923 51.2198 50.8985C50.8844 50.8499 50.5641 50.7152 50.2917 50.5018C50.0806 50.3562 49.9283 50.126 49.9148 49.8663Z" fill="#8A8B96"/>
</svg>
