<svg width="35" height="37" viewBox="0 0 35 37" fill="none" xmlns="http://www.w3.org/2000/svg">
<g opacity="0.1">
<path d="M34.5192 24.5673C33.0468 30.9595 27.8215 35.5134 21.7004 36.4446C20.9567 34.3482 20.6226 32.0947 20.7711 29.7981C24.3445 29.3697 27.452 26.6932 28.3245 22.9056C29.4297 18.108 26.5304 13.3446 21.8488 12.2662C21.2141 12.12 20.5793 12.049 19.9533 12.0475C19.0477 9.56549 17.4629 7.50471 15.4763 6.01229C17.813 5.41221 20.3251 5.34772 22.8392 5.92687C31.2169 7.85671 36.4462 16.2023 34.5192 24.5673Z" fill="#F7F7F8"/>
<path d="M18.2193 14.5563L20.1966 13.9521C18.5978 8.744 14.1497 5.18963 9.084 4.47315C8.70613 2.81603 7.4142 1.43533 5.64476 1.02773C3.18076 0.460129 0.723853 1.99446 0.15711 4.45475C-0.409632 6.91505 1.1284 9.36963 3.59241 9.93723C6.03957 10.501 8.49162 8.94107 9.08006 6.51021C10.0636 6.67337 11.0053 7.01322 11.906 7.41693C8.13084 9.46934 5.2208 13.0659 4.18123 17.5788C2.25431 25.9438 7.48362 34.2894 15.8612 36.2192L15.8683 36.2208C15.2474 33.7759 15.0394 31.2047 15.3046 28.6014C12.1783 26.6834 10.4834 22.8528 11.3709 19.0003C12.1113 15.786 14.4614 13.3719 17.3398 12.4529C17.6953 13.1112 17.9914 13.8139 18.2193 14.5563Z" fill="#F7F7F8"/>
</g>
</svg>
