<svg width="133" height="54" viewBox="0 0 133 54" fill="none" xmlns="http://www.w3.org/2000/svg">
<path opacity="0.2" d="M29.5 14.652C29.4987 12.7263 29.8782 10.8192 30.6166 9.04003C31.3551 7.26083 32.4381 5.64444 33.8035 4.28343C35.169 2.92242 36.7902 1.84351 38.5741 1.1085C40.3581 0.373489 42.2699 -0.00319492 44.2 2.04117e-05H63.8C71.9168 2.04117e-05 78.5 6.5878 78.5 14.652V44H44.2C36.0832 44 29.5 37.4122 29.5 29.348V14.652ZM58.9 19.5556V24.4445H63.8V19.5556H58.9ZM44.2 19.5556V24.4445H49.1V19.5556H44.2Z" fill="#8A8B96"/>
<path d="M100.019 31.5673C98.5468 37.9595 93.3215 42.5134 87.2004 43.4446C86.4567 41.3482 86.1226 39.0947 86.2711 36.7981C89.8445 36.3697 92.952 33.6932 93.8245 29.9056C94.9297 25.108 92.0304 20.3446 87.3488 19.2662C86.7141 19.12 86.0793 19.049 85.4533 19.0475C84.5477 16.5655 82.9629 14.5047 80.9763 13.0123C83.313 12.4122 85.8251 12.3477 88.3392 12.9269C96.7169 14.8567 101.946 23.2023 100.019 31.5673Z" fill="#9568A6"/>
<path d="M83.7193 21.5563L85.6966 20.9521C84.0978 15.744 79.6497 12.1896 74.584 11.4731C74.2061 9.81603 72.9142 8.43533 71.1448 8.02773C68.6808 7.46013 66.2239 8.99446 65.6571 11.4548C65.0904 13.915 66.6284 16.3696 69.0924 16.9372C71.5396 17.501 73.9916 15.9411 74.5801 13.5102C75.5636 13.6734 76.5053 14.0132 77.406 14.4169C73.6308 16.4693 70.7208 20.0659 69.6812 24.5788C67.7543 32.9438 72.9836 41.2894 81.3612 43.2192L81.3683 43.2208C80.7474 40.7759 80.5394 38.2047 80.8046 35.6014C77.6783 33.6834 75.9834 29.8528 76.8709 26.0003C77.6113 22.786 79.9614 20.3719 82.8398 19.4529C83.1953 20.1112 83.4914 20.8139 83.7193 21.5563Z" fill="#9568A6"/>
<path d="M12.7288 44.8626C13.5571 44.3005 14.5352 44 15.5363 44H119L133 53.5H0L12.7288 44.8626Z" fill="url(#paint0_linear_221_171)"/>
<defs>
<linearGradient id="paint0_linear_221_171" x1="66.5" y1="44" x2="66.5" y2="53.5" gradientUnits="userSpaceOnUse">
<stop stop-color="#D9D9D9" stop-opacity="0.03"/>
<stop offset="1" stop-color="#D9D9D9" stop-opacity="0"/>
</linearGradient>
</defs>
</svg>
