<svg width="67" height="67" viewBox="0 0 67 67" fill="none" xmlns="http://www.w3.org/2000/svg">
<g opacity="0.1">
<path d="M52 34.5143C52 41.8939 47.609 48.2058 41.3988 50.7725C40.109 48.662 39.212 46.276 38.8119 43.7207C42.4652 42.3487 45.0843 38.6297 45.0843 34.257C45.0843 28.7184 40.8823 24.2285 35.6988 24.2285C34.9961 24.2285 34.3115 24.311 33.6529 24.4674C32.0996 21.9751 29.9342 20.1161 27.484 18.9817C29.7956 17.7337 32.4211 17.0286 35.2048 17.0286C44.4805 17.0286 52 24.8573 52 34.5143Z" fill="#9568A6"/>
<path d="M32.4374 27.6557L34.37 26.494C31.4276 21.1881 25.89 18.4148 20.3903 18.9086C19.5916 17.1874 17.8989 16 15.9398 16C13.2116 16 11 18.3025 11 21.1428C11 23.9832 13.2116 26.2857 15.9398 26.2857C18.6493 26.2857 20.8496 23.9564 20.8795 21.1428C21.9531 21.0733 23.0256 21.2081 24.0704 21.4232C20.5982 24.6266 18.4096 29.3044 18.4096 34.5143C18.4096 44.1714 25.9291 52 35.2048 52L35.2126 52C33.9677 49.4765 33.1262 46.7102 32.7746 43.7893C29.0229 42.4761 26.3132 38.7047 26.3132 34.257C26.3132 30.5463 28.1994 27.3062 31.0032 25.5718C31.5364 26.2038 32.018 26.8994 32.4374 27.6557Z" fill="#9568A6"/>
</g>
<path d="M42.5283 39L42.8962 40.0352C42.4976 40.1812 42.226 40.44 42.0815 40.8116C41.9369 41.1788 41.8647 41.6035 41.8647 42.0858V43.4395C41.8647 43.8863 41.7661 44.2911 41.569 44.6539C41.3763 45.0167 41.0696 45.3064 40.6491 45.5232C40.2286 45.7356 39.6789 45.8418 39 45.8418V44.8331C39.4161 44.8331 39.714 44.707 39.8936 44.4548C40.0775 44.2027 40.1695 43.8642 40.1695 43.4395V42.0858C40.1695 41.6212 40.2396 41.1877 40.3798 40.7851C40.5243 40.3781 40.7674 40.0219 41.1091 39.7167C41.4551 39.407 41.9282 39.1681 42.5283 39ZM42.8962 50.9581L42.5283 52C41.9282 51.8275 41.4551 51.5864 41.1091 51.2767C40.7674 50.9714 40.5243 50.6153 40.3798 50.2083C40.2396 49.8057 40.1695 49.3721 40.1695 48.9076V47.5539C40.1695 47.2707 40.1279 47.0252 40.0447 46.8173C39.9658 46.6093 39.841 46.4501 39.6702 46.3395C39.4993 46.2244 39.276 46.1669 39 46.1669V45.1516C39.6789 45.1516 40.2286 45.26 40.6491 45.4768C41.0696 45.6891 41.3763 45.9767 41.569 46.3395C41.7661 46.7022 41.8647 47.107 41.8647 47.5539V48.9076C41.8647 49.2306 41.8953 49.5292 41.9566 49.8035C42.0223 50.0778 42.1275 50.3144 42.272 50.5135C42.4209 50.7126 42.629 50.8608 42.8962 50.9581Z" fill="#A1A1A3"/>
<path d="M60.1038 40.0352L60.4717 39C61.0762 39.1681 61.5493 39.407 61.8909 39.7167C62.2326 40.0219 62.4735 40.3781 62.6137 40.7851C62.7582 41.1877 62.8305 41.6212 62.8305 42.0858V43.4395C62.8305 43.7226 62.8699 43.9682 62.9488 44.1761C63.0276 44.384 63.1524 44.5455 63.3233 44.6605C63.4985 44.7756 63.724 44.8331 64 44.8331V45.8152C63.3211 45.8152 62.7714 45.7112 62.3509 45.5033C61.9304 45.2954 61.6215 45.0123 61.4244 44.6539C61.2273 44.2911 61.1288 43.8863 61.1288 43.4395V42.0858C61.1288 41.7628 61.0981 41.4642 61.0368 41.1899C60.9799 40.9156 60.8769 40.6789 60.728 40.4798C60.5791 40.2808 60.371 40.1326 60.1038 40.0352ZM60.4717 52L60.1038 50.9581C60.371 50.8608 60.5791 50.7126 60.728 50.5135C60.8769 50.3144 60.9799 50.0778 61.0368 49.8035C61.0981 49.5292 61.1288 49.2306 61.1288 48.9076V47.5539C61.1288 47.107 61.2273 46.7044 61.4244 46.3461C61.6215 45.9877 61.9304 45.7046 62.3509 45.4967C62.7714 45.2843 63.3211 45.1782 64 45.1782V46.1669C63.5883 46.1669 63.2904 46.293 63.1064 46.5452C62.9225 46.7973 62.8305 47.1336 62.8305 47.5539V48.9076C62.8305 49.3721 62.7582 49.8057 62.6137 50.2083C62.4735 50.6153 62.2326 50.9714 61.8909 51.2767C61.5493 51.5864 61.0762 51.8275 60.4717 52Z" fill="#A1A1A3"/>
<path fill-rule="evenodd" clip-rule="evenodd" d="M52.6983 43.2046C52.6983 44.6367 51.5264 45.7843 50.0641 45.7843C48.6024 45.7843 47.43 44.6367 47.43 43.2046C47.43 41.7726 48.6024 40.625 50.0641 40.625C51.5264 40.625 52.6983 41.7726 52.6983 43.2046ZM46.0833 48.7052C46.0833 47.3796 47.9171 47.0479 50.0641 47.0479C52.2229 47.0479 54.045 47.391 54.045 48.7177C54.045 50.0433 52.2112 50.375 50.0641 50.375C47.9054 50.375 46.0833 50.0319 46.0833 48.7052ZM53.7605 43.2514C53.7605 43.9807 53.5369 44.6611 53.1447 45.2264C53.1038 45.2845 53.1399 45.3629 53.2109 45.3753C53.3095 45.3914 53.4107 45.4013 53.5141 45.4034C54.5423 45.4298 55.465 44.7815 55.72 43.8052C56.0979 42.3566 54.9891 41.0559 53.5766 41.0559C53.4234 41.0559 53.2766 41.0714 53.1335 41.1C53.1139 41.1041 53.0927 41.1135 53.0821 41.1301C53.0683 41.1514 53.0784 41.1789 53.0922 41.197C53.5167 41.7799 53.7605 42.4895 53.7605 43.2514ZM55.4634 46.4221C56.1546 46.5544 56.6088 46.8238 56.7969 47.2167C56.9565 47.5385 56.9565 47.9122 56.7969 48.2341C56.5091 48.8424 55.5806 49.0381 55.2196 49.0884C55.1449 49.0988 55.085 49.0365 55.093 48.9628C55.2774 47.2769 53.8109 46.4776 53.4314 46.2939C53.4155 46.2851 53.4118 46.2726 53.4134 46.2643C53.4144 46.2591 53.4213 46.2508 53.4335 46.2492C54.2545 46.2337 55.1375 46.3442 55.4634 46.4221Z" fill="#8A8B96"/>
</svg>
