<svg width="30" height="16" viewBox="0 0 30 16" fill="none" xmlns="http://www.w3.org/2000/svg">
<path opacity="0.54" d="M15 6C16.66 6 17.99 4.66 17.99 3C17.99 1.34 16.66 0 15 0C13.34 0 12 1.34 12 3C12 4.66 13.34 6 15 6ZM7 6C8.66 6 9.99 4.66 9.99 3C9.99 1.34 8.66 0 7 0C5.34 0 4 1.34 4 3C4 4.66 5.34 6 7 6ZM7 8C4.67 8 0 9.17 0 11.5V14H14V11.5C14 9.17 9.33 8 7 8ZM15 8C14.71 8 14.38 8.02 14.03 8.05C15.19 8.89 16 10.02 16 11.5V14H22V11.5C22 9.17 17.33 8 15 8Z" fill="#F7F7F8" fill-opacity="0.17"/>
<path d="M28.1639 10.3434C27.614 12.7307 25.6625 14.4314 23.3765 14.7792C23.0987 13.9962 22.9739 13.1547 23.0294 12.2969C24.3639 12.1369 25.5245 11.1374 25.8504 9.72281C26.2631 7.93107 25.1803 6.15208 23.4319 5.74932C23.1949 5.69472 22.9578 5.66821 22.724 5.66765C22.3858 4.7407 21.7939 3.97106 21.052 3.41369C21.9247 3.18958 22.8628 3.1655 23.8018 3.38179C26.9306 4.10252 28.8835 7.21934 28.1639 10.3434Z" fill="#9568A6"/>
<path d="M22.0764 6.60461L22.8149 6.37897C22.2178 4.4339 20.5565 3.10646 18.6647 2.83887C18.5235 2.21999 18.041 1.70435 17.3802 1.55212C16.46 1.34014 15.5424 1.91316 15.3307 2.832C15.1191 3.75084 15.6935 4.66756 16.6137 4.87953C17.5277 5.09007 18.4434 4.5075 18.6632 3.59965C19.0305 3.66059 19.3822 3.78751 19.7186 3.93828C18.3087 4.70479 17.2219 6.04799 16.8336 7.7334C16.114 10.8575 18.067 13.9743 21.1957 14.695L21.1984 14.6956C20.9665 13.7825 20.8888 12.8222 20.9879 11.85C19.8203 11.1337 19.1873 9.7031 19.5187 8.26428C19.7953 7.06385 20.6729 6.16227 21.7479 5.81904C21.8807 6.06491 21.9913 6.32736 22.0764 6.60461Z" fill="#9568A6"/>
</svg>
