<svg width="26" height="19" viewBox="0 0 26 19" fill="none" xmlns="http://www.w3.org/2000/svg">
<path opacity="0.1" d="M15.6311 3.47358H14.7627V10.4207C14.7627 10.8984 14.3719 11.2891 13.8943 11.2891H3.47358V12.1575C3.47358 13.1128 4.25513 13.8943 5.21037 13.8943H13.8943L17.3679 17.3679V5.21037C17.3679 4.25513 16.5863 3.47358 15.6311 3.47358ZM13.0259 7.81555V1.73679C13.0259 0.781555 12.2444 0 11.2891 0H1.73679C0.781555 0 0 0.781555 0 1.73679V13.0259L3.47358 9.55234H11.2891C12.2444 9.55234 13.0259 8.77079 13.0259 7.81555Z" fill="#F7F7F8" fill-opacity="0.36"/>
<path d="M24.1639 13.3434C23.614 15.7307 21.6625 17.4314 19.3765 17.7792C19.0987 16.9962 18.9739 16.1547 19.0294 15.2969C20.3639 15.1369 21.5245 14.1374 21.8504 12.7228C22.2631 10.9311 21.1803 9.15208 19.4319 8.74932C19.1949 8.69472 18.9578 8.66821 18.724 8.66765C18.3858 7.7407 17.7939 6.97106 17.052 6.41369C17.9247 6.18958 18.8628 6.1655 19.8018 6.38179C22.9306 7.10252 24.8835 10.2193 24.1639 13.3434Z" fill="#346CAD"/>
<path d="M18.0764 9.60461L18.8149 9.37897C18.2178 7.4339 16.5565 6.10646 14.6647 5.83887C14.5235 5.21999 14.041 4.70435 13.3802 4.55212C12.46 4.34014 11.5424 4.91316 11.3307 5.832C11.1191 6.75084 11.6935 7.66756 12.6137 7.87953C13.5277 8.09007 14.4434 7.5075 14.6632 6.59965C15.0305 6.66059 15.3822 6.78751 15.7186 6.93828C14.3087 7.70479 13.2219 9.04799 12.8336 10.7334C12.114 13.8575 14.067 16.9743 17.1957 17.695L17.1984 17.6956C16.9665 16.7825 16.8888 15.8222 16.9879 14.85C15.8203 14.1337 15.1873 12.7031 15.5187 11.2643C15.7953 10.0639 16.6729 9.16227 17.7479 8.81904C17.8807 9.06491 17.9913 9.32736 18.0764 9.60461Z" fill="#346CAD"/>
</svg>
