<svg width="6" height="6" viewBox="0 0 6 6" fill="none" xmlns="http://www.w3.org/2000/svg">
<path fill-rule="evenodd" clip-rule="evenodd" d="M3.57818 1.94182L3 1.36364L2.42182 1.94182L1.74 1.26L3 0L4.26 1.26L3.57818 1.94182ZM1.94182 2.42182L1.36364 3L1.94182 3.57818L1.26 4.26L0 3L1.26 1.74L1.94182 2.42182ZM4.05818 3.57818L4.63636 3L4.05818 2.42182L4.74 1.74L6 3L4.74 4.26L4.05818 3.57818ZM2.42182 4.05818L3 4.63636L3.57818 4.05818L4.26 4.74L3 6L1.74 4.74L2.42182 4.05818Z" fill="#03AC00"/>
<path d="M3.38569 3.38569H2.61431V2.6143H3.38569V3.38569Z" fill="#026D00"/>
</svg>
