<svg width="12" height="4" viewBox="0 0 12 4" fill="none" xmlns="http://www.w3.org/2000/svg">
<path d="M0 4V0H1.0931L1.78629 1.77914C1.83072 1.89775 1.87071 2.0184 1.90626 2.1411C1.94625 2.25971 1.98624 2.38446 2.02624 2.51534H2.0529C2.09289 2.38446 2.13066 2.25971 2.16621 2.1411C2.20175 2.0184 2.24175 1.89775 2.28618 1.77914L2.96604 0H4.05914V4H3.15933V2.53374C3.15933 2.40286 3.16599 2.24949 3.17932 2.07362C3.1971 1.89366 3.21487 1.71575 3.23265 1.53988C3.25486 1.35992 3.27486 1.2045 3.29263 1.07362H3.26597L2.91271 2.12883L2.29951 3.65644H1.7263L1.11976 2.12883L0.779834 1.07362H0.753173C0.770947 1.2045 0.788721 1.35992 0.806495 1.53988C0.828713 1.71575 0.846487 1.89366 0.859817 2.07362C0.873148 2.24949 0.879813 2.40286 0.879813 2.53374V4H0Z" fill="#EB5E4B"/>
<path d="M5.80356 4L4.51716 0H5.55694L6.05017 1.86503C6.09016 2.00818 6.12793 2.15133 6.16348 2.29448C6.20347 2.43763 6.24124 2.57873 6.27679 2.71779C6.31678 2.85685 6.35899 3 6.40343 3.14724H6.43009C6.47008 3 6.50785 2.85685 6.5434 2.71779C6.57895 2.57873 6.61672 2.43763 6.65671 2.29448C6.6967 2.15133 6.73669 2.00818 6.77668 1.86503L7.31657 0H8.31636L6.98331 4H5.80356Z" fill="#EB5E4B"/>
<path d="M8.78068 4V0H10.2737C10.5936 0 10.8825 0.0408998 11.1402 0.122699C11.4023 0.200409 11.6112 0.333333 11.7667 0.521472C11.9222 0.709611 12 0.965235 12 1.28834C12 1.59918 11.9222 1.85481 11.7667 2.05521C11.6112 2.25562 11.4046 2.40491 11.1468 2.50307C10.8891 2.59714 10.607 2.64417 10.3004 2.64417H9.76048V4H8.78068ZM9.76048 1.92638H10.2404C10.5114 1.92638 10.7114 1.87117 10.8402 1.76074C10.9736 1.65031 11.0402 1.49284 11.0402 1.28834C11.0402 1.07566 10.9691 0.928425 10.8269 0.846626C10.6847 0.760736 10.4803 0.717791 10.2137 0.717791H9.76048V1.92638Z" fill="#EB5E4B"/>
</svg>
