<svg width="10" height="6" viewBox="0 0 10 6" fill="none" xmlns="http://www.w3.org/2000/svg">
<path fill-rule="evenodd" clip-rule="evenodd" d="M0.952381 0C0.426396 0 0 0.383756 0 0.857143V5.14286C0 5.61624 0.426395 6 0.952381 6H9.04762C9.5736 6 10 5.61624 10 5.14286V0.857143C10 0.383756 9.5736 0 9.04762 0H0.952381ZM1.77141 2.03657V4.28571H2.08761V3.39428H2.49903C2.68189 3.39428 2.84189 3.36914 2.97903 3.31886C3.11872 3.26628 3.22665 3.18971 3.30284 3.08914C3.38157 2.98628 3.42094 2.856 3.42094 2.69829C3.42094 2.53371 3.38157 2.40343 3.30284 2.30743C3.22411 2.21143 3.11491 2.14286 2.97522 2.10171C2.83554 2.05828 2.67173 2.03657 2.4838 2.03657H1.77141ZM2.08761 3.16114H2.46094C2.67935 3.16114 2.84062 3.12343 2.94475 3.048C3.05141 2.97257 3.10475 2.856 3.10475 2.69829C3.10475 2.536 3.04887 2.424 2.93713 2.36228C2.82792 2.29829 2.66411 2.26628 2.4457 2.26628H2.08761V3.16114ZM4.19582 4.28571H4.51201V3.336H4.96576L5.56725 4.28571H5.92534L5.29123 3.3041C5.33965 3.29342 5.38594 3.28005 5.43011 3.264C5.56217 3.21371 5.66503 3.13943 5.73868 3.04114C5.81487 2.94286 5.85296 2.81828 5.85296 2.66743C5.85296 2.512 5.81487 2.38857 5.73868 2.29714C5.66503 2.20343 5.56217 2.13714 5.43011 2.09829C5.29804 2.05714 5.14693 2.03657 4.97677 2.03657H4.19582V4.28571ZM4.93106 3.10286H4.51201V2.26628H4.93106C5.12661 2.26628 5.27645 2.29714 5.38058 2.35886C5.48471 2.41829 5.53677 2.52114 5.53677 2.66743C5.53677 2.81371 5.48471 2.92343 5.38058 2.99657C5.27645 3.06743 5.12661 3.10286 4.93106 3.10286ZM6.9971 4.18286C7.15964 4.27886 7.34504 4.32686 7.55329 4.32686C7.76408 4.32686 7.94948 4.27886 8.10948 4.18286C8.26948 4.08686 8.39519 3.95086 8.48662 3.77486C8.57805 3.59886 8.62377 3.39086 8.62377 3.15086C8.62377 2.91086 8.57805 2.70514 8.48662 2.53371C8.39519 2.36 8.26948 2.22743 8.10948 2.136C7.94948 2.04228 7.76408 1.99543 7.55329 1.99543C7.34504 1.99543 7.15964 2.04228 6.9971 2.136C6.8371 2.22743 6.71138 2.36 6.61996 2.53371C6.53107 2.70514 6.48662 2.91086 6.48662 3.15086C6.48662 3.39086 6.53107 3.59886 6.61996 3.77486C6.71138 3.95086 6.8371 4.08686 6.9971 4.18286ZM7.55329 4.07314C7.70313 4.07314 7.83265 4.03543 7.94186 3.96C8.05361 3.88457 8.13996 3.77829 8.20091 3.64114C8.26186 3.50171 8.29234 3.33829 8.29234 3.15086C8.29234 2.96571 8.26186 2.80571 8.20091 2.67086C8.13996 2.536 8.05361 2.432 7.94186 2.35886C7.83265 2.28343 7.70313 2.24571 7.55329 2.24571C7.40599 2.24571 7.27646 2.28343 7.16472 2.35886C7.05297 2.432 6.96662 2.536 6.90567 2.67086C6.84472 2.80571 6.81424 2.96571 6.81424 3.15086C6.81424 3.33829 6.84472 3.50171 6.90567 3.64114C6.96662 3.77829 7.05297 3.88457 7.16472 3.96C7.27646 4.03543 7.40599 4.07314 7.55329 4.07314Z" fill="#6E3CFF"/>
</svg>
