<svg width="5" height="6" viewBox="0 0 5 6" fill="none" xmlns="http://www.w3.org/2000/svg">
<path fill-rule="evenodd" clip-rule="evenodd" d="M0 1.09091L2.5 0V1.63636C2.34659 1.63636 2.22222 1.75847 2.22222 1.90909C2.22222 2.05971 2.34659 2.18182 2.5 2.18182V3.81818C2.34659 3.81818 2.22222 3.94029 2.22222 4.09091C2.22222 4.24153 2.34659 4.36364 2.5 4.36364V6C1.06667 5.65636 0 4.24091 0 2.72727V1.09091ZM2.22917 2.535L1.67083 1.98409H1.66944L1.62639 1.94045L1.42917 2.13273L1.9875 2.685L1.98889 2.68364L2.03194 2.72727L2.22917 2.535ZM1.66667 3C1.66667 3.15062 1.5423 3.27273 1.38889 3.27273C1.23548 3.27273 1.11111 3.15062 1.11111 3C1.11111 2.84938 1.23548 2.72727 1.38889 2.72727C1.5423 2.72727 1.66667 2.84938 1.66667 3ZM2.22361 3.45818L2.02639 3.26591L1.46667 3.81273L1.42222 3.85773L1.61806 4.05L2.17778 3.50182L2.22361 3.45818Z" fill="#898032"/>
<path fill-rule="evenodd" clip-rule="evenodd" d="M2.5 0V1.63636C2.65341 1.63636 2.77778 1.75847 2.77778 1.90909C2.77778 2.05971 2.65341 2.18182 2.5 2.18182V3.81818C2.65341 3.81818 2.77778 3.94029 2.77778 4.09091C2.77778 4.24153 2.65341 4.36364 2.5 4.36364V6C3.93333 5.65636 5 4.24091 5 2.72727V1.09091L2.5 0ZM3.88889 3C3.88889 3.15062 3.76452 3.27273 3.61111 3.27273C3.4577 3.27273 3.33333 3.15062 3.33333 3C3.33333 2.84938 3.4577 2.72727 3.61111 2.72727C3.76452 2.72727 3.88889 2.84938 3.88889 3ZM3.38167 1.93977L2.76986 2.53868L2.96597 2.73177L3.57778 2.13273L3.38167 1.93977ZM3.02361 3.31227L3.57778 3.85909L3.38056 4.05136L3.33194 4.00364L2.77778 3.45682L2.97361 3.26455L3.02361 3.31227Z" fill="#7C742B"/>
</svg>
