<svg width="5" height="6" viewBox="0 0 5 6" fill="none" xmlns="http://www.w3.org/2000/svg">
<path fill-rule="evenodd" clip-rule="evenodd" d="M4.00515 3C4.0799 3.02949 4.15464 3.06434 4.2268 3.10724C4.72165 3.40483 4.99742 3.9437 5 4.49866C4.53608 4.7748 3.94845 4.79625 3.45361 4.49866C3.38144 4.45576 3.31443 4.40751 3.25258 4.35389C3.26546 4.437 3.2732 4.52279 3.2732 4.60858C3.2732 5.20375 2.96134 5.72118 2.5 6C2.03866 5.72118 1.7268 5.20375 1.7268 4.60858C1.7268 4.52279 1.73454 4.437 1.74742 4.35121C1.68557 4.40215 1.61856 4.45308 1.54639 4.49598C1.04897 4.79357 0.46134 4.77212 0 4.49598C0.00257732 3.94102 0.278351 3.40214 0.773196 3.10456C0.845361 3.06166 0.920103 3.02681 0.994845 2.99732L1.46907 3C1.46907 3.59249 1.93041 4.07239 2.5 4.07239C3.06959 4.07239 3.53093 3.59249 3.53093 3H4.00515Z" fill="#5AC793"/>
<path d="M4.00515 3C4.0799 2.97051 4.15464 2.93566 4.2268 2.89276C4.72165 2.59517 4.99742 2.0563 5 1.50134C4.53866 1.2252 3.95103 1.20375 3.45361 1.50134C3.38144 1.54424 3.31443 1.59517 3.25258 1.64611C3.26546 1.563 3.2732 1.47721 3.2732 1.39142C3.2732 0.796247 2.96134 0.27882 2.5 0C2.03866 0.27882 1.7268 0.796247 1.7268 1.39142C1.7268 1.47721 1.73454 1.563 1.74742 1.64611C1.68557 1.59249 1.61856 1.54155 1.54639 1.49866C1.05155 1.20107 0.463917 1.22252 0 1.49866C0 2.05362 0.275773 2.59249 0.773196 2.89008C0.845361 2.93298 0.920103 2.96783 0.994845 2.99732L1.46907 3C1.46907 2.40751 1.93041 1.92761 2.5 1.92761C3.06959 1.92761 3.53093 2.40751 3.53093 3H4.00515Z" fill="#47A97A"/>
</svg>
